ISO-10303-21;
HEADER;
/* Generated by software containing ST-Developer
 * from STEP Tools, Inc. (www.steptools.com) 
 */

FILE_DESCRIPTION(
/* description */ (''),
/* implementation_level */ '2;1');

FILE_NAME(
/* name */ 'phone-stand.step',
/* time_stamp */ '2026-07-30T22:41:05-07:00',
/* author */ (''),
/* organization */ (''),
/* preprocessor_version */ 'ST-DEVELOPER v20.1',
/* originating_system */ 'Autodesk Translation Framework v15.8.0.0',
/* authorisation */ '');

FILE_SCHEMA (('AUTOMOTIVE_DESIGN { 1 0 10303 214 3 1 1 }'));
ENDSEC;

DATA;
#10=MECHANICAL_DESIGN_GEOMETRIC_PRESENTATION_REPRESENTATION('',(#13),#2332);
#11=SHAPE_REPRESENTATION_RELATIONSHIP('SRR','None',#2339,#12);
#12=ADVANCED_BREP_SHAPE_REPRESENTATION('',(#14),#2331);
#13=STYLED_ITEM('',(#2348),#14);
#14=MANIFOLD_SOLID_BREP('Body1',#1353);
#15=TOROIDAL_SURFACE('',#1454,2.,1.00000000000001);
#16=TOROIDAL_SURFACE('',#1470,1.99999999999999,0.999999999999996);
#17=SPHERICAL_SURFACE('',#1413,1.);
#18=SPHERICAL_SURFACE('',#1422,1.);
#19=SPHERICAL_SURFACE('',#1427,1.);
#20=SPHERICAL_SURFACE('',#1433,0.999999999999996);
#21=SPHERICAL_SURFACE('',#1438,0.999999999999996);
#22=SPHERICAL_SURFACE('',#1449,0.999999999999996);
#23=SPHERICAL_SURFACE('',#1461,1.);
#24=SPHERICAL_SURFACE('',#1466,0.999999999999996);
#25=SPHERICAL_SURFACE('',#1482,1.);
#26=SPHERICAL_SURFACE('',#1484,1.);
#27=SPHERICAL_SURFACE('',#1492,1.);
#28=SPHERICAL_SURFACE('',#1499,1.);
#29=SPHERICAL_SURFACE('',#1501,1.);
#30=CIRCLE('',#1386,0.999999999999996);
#31=CIRCLE('',#1392,0.999999999999996);
#32=CIRCLE('',#1395,10.);
#33=CIRCLE('',#1396,10.);
#34=CIRCLE('',#1399,10.);
#35=CIRCLE('',#1400,10.);
#36=CIRCLE('',#1403,10.);
#37=CIRCLE('',#1404,10.);
#38=CIRCLE('',#1407,10.);
#39=CIRCLE('',#1408,10.);
#40=CIRCLE('',#1411,1.);
#41=CIRCLE('',#1412,0.999999999999996);
#42=CIRCLE('',#1414,1.);
#43=CIRCLE('',#1415,0.999999999999998);
#44=CIRCLE('',#1417,0.999999999999998);
#45=CIRCLE('',#1419,1.);
#46=CIRCLE('',#1421,1.99999999999999);
#47=CIRCLE('',#1423,1.);
#48=CIRCLE('',#1424,1.);
#49=CIRCLE('',#1425,0.999999999999996);
#50=CIRCLE('',#1428,1.);
#51=CIRCLE('',#1429,1.);
#52=CIRCLE('',#1430,0.999999999999996);
#53=CIRCLE('',#1434,1.);
#54=CIRCLE('',#1435,0.999999999999996);
#55=CIRCLE('',#1436,1.);
#56=CIRCLE('',#1439,0.999999999999996);
#57=CIRCLE('',#1440,0.999999999999996);
#58=CIRCLE('',#1441,1.);
#59=CIRCLE('',#1450,0.999999999999996);
#60=CIRCLE('',#1451,0.999999999999996);
#61=CIRCLE('',#1452,1.);
#62=CIRCLE('',#1455,1.);
#63=CIRCLE('',#1456,1.);
#64=CIRCLE('',#1457,2.);
#65=CIRCLE('',#1458,1.00000000000001);
#66=CIRCLE('',#1460,1.);
#67=CIRCLE('',#1462,0.999999999999995);
#68=CIRCLE('',#1463,0.999999999999996);
#69=CIRCLE('',#1467,0.999999999999996);
#70=CIRCLE('',#1468,0.999999999999996);
#71=CIRCLE('',#1469,1.00000000000001);
#72=CIRCLE('',#1471,1.);
#73=CIRCLE('',#1472,0.999999999999996);
#74=CIRCLE('',#1473,0.999999999999996);
#75=CIRCLE('',#1475,0.999999999999996);
#76=CIRCLE('',#1483,0.999999999999998);
#77=CIRCLE('',#1485,1.);
#78=CIRCLE('',#1486,0.999999999999998);
#79=CIRCLE('',#1488,1.);
#80=CIRCLE('',#1491,1.00000000000001);
#81=CIRCLE('',#1493,0.999999999999995);
#82=CIRCLE('',#1495,0.999999999999996);
#83=CIRCLE('',#1498,1.);
#84=CIRCLE('',#1500,1.);
#85=CIRCLE('',#1502,0.999999999999996);
#86=CYLINDRICAL_SURFACE('',#1383,1.);
#87=CYLINDRICAL_SURFACE('',#1385,1.);
#88=CYLINDRICAL_SURFACE('',#1389,1.);
#89=CYLINDRICAL_SURFACE('',#1391,1.);
#90=CYLINDRICAL_SURFACE('',#1394,10.);
#91=CYLINDRICAL_SURFACE('',#1398,10.);
#92=CYLINDRICAL_SURFACE('',#1402,10.);
#93=CYLINDRICAL_SURFACE('',#1406,10.);
#94=CYLINDRICAL_SURFACE('',#1410,1.);
#95=CYLINDRICAL_SURFACE('',#1416,1.);
#96=CYLINDRICAL_SURFACE('',#1418,1.);
#97=CYLINDRICAL_SURFACE('',#1426,1.);
#98=CYLINDRICAL_SURFACE('',#1431,1.);
#99=CYLINDRICAL_SURFACE('',#1432,1.);
#100=CYLINDRICAL_SURFACE('',#1437,1.);
#101=CYLINDRICAL_SURFACE('',#1442,1.);
#102=CYLINDRICAL_SURFACE('',#1443,1.);
#103=CYLINDRICAL_SURFACE('',#1445,1.);
#104=CYLINDRICAL_SURFACE('',#1447,1.);
#105=CYLINDRICAL_SURFACE('',#1453,1.);
#106=CYLINDRICAL_SURFACE('',#1459,1.);
#107=CYLINDRICAL_SURFACE('',#1464,1.);
#108=CYLINDRICAL_SURFACE('',#1474,1.);
#109=CYLINDRICAL_SURFACE('',#1476,1.);
#110=CYLINDRICAL_SURFACE('',#1477,1.);
#111=CYLINDRICAL_SURFACE('',#1478,1.);
#112=CYLINDRICAL_SURFACE('',#1479,1.);
#113=CYLINDRICAL_SURFACE('',#1480,1.);
#114=CYLINDRICAL_SURFACE('',#1481,1.);
#115=CYLINDRICAL_SURFACE('',#1487,1.);
#116=CYLINDRICAL_SURFACE('',#1490,1.);
#117=CYLINDRICAL_SURFACE('',#1494,1.);
#118=CYLINDRICAL_SURFACE('',#1497,1.);
#119=CYLINDRICAL_SURFACE('',#1506,1.);
#120=CYLINDRICAL_SURFACE('',#1508,1.);
#121=CYLINDRICAL_SURFACE('',#1510,1.);
#122=CYLINDRICAL_SURFACE('',#1513,1.);
#123=FACE_BOUND('',#235,.T.);
#124=FACE_BOUND('',#293,.T.);
#125=FACE_BOUND('',#296,.T.);
#126=FACE_BOUND('',#304,.T.);
#127=FACE_BOUND('',#310,.T.);
#128=ELLIPSE('',#1377,1.52485270458719,1.);
#129=ELLIPSE('',#1378,1.52485270458719,1.);
#130=ELLIPSE('',#1380,1.52485270458719,1.);
#131=ELLIPSE('',#1381,1.52485270458719,1.);
#132=ELLIPSE('',#1384,1.4142135623731,1.);
#133=ELLIPSE('',#1390,1.41421356237309,1.);
#134=ELLIPSE('',#1444,1.41421356237309,1.);
#135=ELLIPSE('',#1446,1.41421356237309,1.);
#136=ELLIPSE('',#1448,1.4142135623731,1.);
#137=ELLIPSE('',#1465,1.4142135623731,1.);
#138=ELLIPSE('',#1489,1.41421356237309,1.);
#139=ELLIPSE('',#1496,1.4142135623731,1.);
#140=FACE_OUTER_BOUND('',#223,.T.);
#141=FACE_OUTER_BOUND('',#224,.T.);
#142=FACE_OUTER_BOUND('',#225,.T.);
#143=FACE_OUTER_BOUND('',#226,.T.);
#144=FACE_OUTER_BOUND('',#227,.T.);
#145=FACE_OUTER_BOUND('',#228,.T.);
#146=FACE_OUTER_BOUND('',#229,.T.);
#147=FACE_OUTER_BOUND('',#230,.T.);
#148=FACE_OUTER_BOUND('',#231,.T.);
#149=FACE_OUTER_BOUND('',#232,.T.);
#150=FACE_OUTER_BOUND('',#233,.T.);
#151=FACE_OUTER_BOUND('',#234,.T.);
#152=FACE_OUTER_BOUND('',#236,.T.);
#153=FACE_OUTER_BOUND('',#237,.T.);
#154=FACE_OUTER_BOUND('',#238,.T.);
#155=FACE_OUTER_BOUND('',#239,.T.);
#156=FACE_OUTER_BOUND('',#240,.T.);
#157=FACE_OUTER_BOUND('',#241,.T.);
#158=FACE_OUTER_BOUND('',#242,.T.);
#159=FACE_OUTER_BOUND('',#243,.T.);
#160=FACE_OUTER_BOUND('',#244,.T.);
#161=FACE_OUTER_BOUND('',#245,.T.);
#162=FACE_OUTER_BOUND('',#246,.T.);
#163=FACE_OUTER_BOUND('',#247,.T.);
#164=FACE_OUTER_BOUND('',#248,.T.);
#165=FACE_OUTER_BOUND('',#249,.T.);
#166=FACE_OUTER_BOUND('',#250,.T.);
#167=FACE_OUTER_BOUND('',#251,.T.);
#168=FACE_OUTER_BOUND('',#252,.T.);
#169=FACE_OUTER_BOUND('',#253,.T.);
#170=FACE_OUTER_BOUND('',#254,.T.);
#171=FACE_OUTER_BOUND('',#255,.T.);
#172=FACE_OUTER_BOUND('',#256,.T.);
#173=FACE_OUTER_BOUND('',#257,.T.);
#174=FACE_OUTER_BOUND('',#258,.T.);
#175=FACE_OUTER_BOUND('',#259,.T.);
#176=FACE_OUTER_BOUND('',#260,.T.);
#177=FACE_OUTER_BOUND('',#261,.T.);
#178=FACE_OUTER_BOUND('',#262,.T.);
#179=FACE_OUTER_BOUND('',#263,.T.);
#180=FACE_OUTER_BOUND('',#264,.T.);
#181=FACE_OUTER_BOUND('',#265,.T.);
#182=FACE_OUTER_BOUND('',#266,.T.);
#183=FACE_OUTER_BOUND('',#267,.T.);
#184=FACE_OUTER_BOUND('',#268,.T.);
#185=FACE_OUTER_BOUND('',#269,.T.);
#186=FACE_OUTER_BOUND('',#270,.T.);
#187=FACE_OUTER_BOUND('',#271,.T.);
#188=FACE_OUTER_BOUND('',#272,.T.);
#189=FACE_OUTER_BOUND('',#273,.T.);
#190=FACE_OUTER_BOUND('',#274,.T.);
#191=FACE_OUTER_BOUND('',#275,.T.);
#192=FACE_OUTER_BOUND('',#276,.T.);
#193=FACE_OUTER_BOUND('',#277,.T.);
#194=FACE_OUTER_BOUND('',#278,.T.);
#195=FACE_OUTER_BOUND('',#279,.T.);
#196=FACE_OUTER_BOUND('',#280,.T.);
#197=FACE_OUTER_BOUND('',#281,.T.);
#198=FACE_OUTER_BOUND('',#282,.T.);
#199=FACE_OUTER_BOUND('',#283,.T.);
#200=FACE_OUTER_BOUND('',#284,.T.);
#201=FACE_OUTER_BOUND('',#285,.T.);
#202=FACE_OUTER_BOUND('',#286,.T.);
#203=FACE_OUTER_BOUND('',#287,.T.);
#204=FACE_OUTER_BOUND('',#288,.T.);
#205=FACE_OUTER_BOUND('',#289,.T.);
#206=FACE_OUTER_BOUND('',#290,.T.);
#207=FACE_OUTER_BOUND('',#291,.T.);
#208=FACE_OUTER_BOUND('',#292,.T.);
#209=FACE_OUTER_BOUND('',#294,.T.);
#210=FACE_OUTER_BOUND('',#295,.T.);
#211=FACE_OUTER_BOUND('',#297,.T.);
#212=FACE_OUTER_BOUND('',#298,.T.);
#213=FACE_OUTER_BOUND('',#299,.T.);
#214=FACE_OUTER_BOUND('',#300,.T.);
#215=FACE_OUTER_BOUND('',#301,.T.);
#216=FACE_OUTER_BOUND('',#302,.T.);
#217=FACE_OUTER_BOUND('',#303,.T.);
#218=FACE_OUTER_BOUND('',#305,.T.);
#219=FACE_OUTER_BOUND('',#306,.T.);
#220=FACE_OUTER_BOUND('',#307,.T.);
#221=FACE_OUTER_BOUND('',#308,.T.);
#222=FACE_OUTER_BOUND('',#309,.T.);
#223=EDGE_LOOP('',(#857,#858,#859,#860));
#224=EDGE_LOOP('',(#861,#862,#863,#864));
#225=EDGE_LOOP('',(#865,#866,#867,#868));
#226=EDGE_LOOP('',(#869,#870,#871,#872));
#227=EDGE_LOOP('',(#873,#874,#875,#876));
#228=EDGE_LOOP('',(#877,#878,#879,#880));
#229=EDGE_LOOP('',(#881,#882,#883,#884));
#230=EDGE_LOOP('',(#885,#886,#887,#888));
#231=EDGE_LOOP('',(#889,#890,#891,#892,#893,#894,#895,#896));
#232=EDGE_LOOP('',(#897,#898,#899,#900,#901,#902,#903,#904));
#233=EDGE_LOOP('',(#905,#906,#907,#908,#909,#910));
#234=EDGE_LOOP('',(#911,#912,#913,#914));
#235=EDGE_LOOP('',(#915,#916,#917,#918));
#236=EDGE_LOOP('',(#919,#920,#921,#922));
#237=EDGE_LOOP('',(#923,#924,#925));
#238=EDGE_LOOP('',(#926,#927,#928,#929));
#239=EDGE_LOOP('',(#930,#931,#932,#933));
#240=EDGE_LOOP('',(#934,#935,#936,#937));
#241=EDGE_LOOP('',(#938,#939,#940));
#242=EDGE_LOOP('',(#941,#942,#943,#944));
#243=EDGE_LOOP('',(#945,#946,#947,#948));
#244=EDGE_LOOP('',(#949,#950,#951,#952));
#245=EDGE_LOOP('',(#953,#954,#955,#956));
#246=EDGE_LOOP('',(#957,#958,#959,#960));
#247=EDGE_LOOP('',(#961,#962,#963,#964));
#248=EDGE_LOOP('',(#965,#966,#967,#968));
#249=EDGE_LOOP('',(#969,#970,#971,#972));
#250=EDGE_LOOP('',(#973,#974,#975,#976,#977,#978,#979,#980));
#251=EDGE_LOOP('',(#981,#982,#983,#984));
#252=EDGE_LOOP('',(#985,#986,#987));
#253=EDGE_LOOP('',(#988,#989,#990,#991));
#254=EDGE_LOOP('',(#992,#993,#994,#995));
#255=EDGE_LOOP('',(#996,#997,#998,#999,#1000,#1001,#1002,#1003,#1004,#1005,
#1006,#1007,#1008,#1009,#1010,#1011));
#256=EDGE_LOOP('',(#1012,#1013,#1014));
#257=EDGE_LOOP('',(#1015,#1016,#1017,#1018,#1019));
#258=EDGE_LOOP('',(#1020,#1021,#1022));
#259=EDGE_LOOP('',(#1023,#1024,#1025,#1026));
#260=EDGE_LOOP('',(#1027,#1028,#1029,#1030,#1031));
#261=EDGE_LOOP('',(#1032,#1033,#1034));
#262=EDGE_LOOP('',(#1035,#1036,#1037,#1038));
#263=EDGE_LOOP('',(#1039,#1040,#1041));
#264=EDGE_LOOP('',(#1042,#1043,#1044,#1045));
#265=EDGE_LOOP('',(#1046,#1047,#1048,#1049));
#266=EDGE_LOOP('',(#1050,#1051,#1052,#1053));
#267=EDGE_LOOP('',(#1054,#1055,#1056,#1057));
#268=EDGE_LOOP('',(#1058,#1059,#1060));
#269=EDGE_LOOP('',(#1061,#1062,#1063,#1064));
#270=EDGE_LOOP('',(#1065,#1066,#1067,#1068));
#271=EDGE_LOOP('',(#1069,#1070,#1071,#1072));
#272=EDGE_LOOP('',(#1073,#1074,#1075));
#273=EDGE_LOOP('',(#1076,#1077,#1078,#1079));
#274=EDGE_LOOP('',(#1080,#1081,#1082));
#275=EDGE_LOOP('',(#1083,#1084,#1085,#1086));
#276=EDGE_LOOP('',(#1087,#1088,#1089,#1090));
#277=EDGE_LOOP('',(#1091,#1092,#1093,#1094));
#278=EDGE_LOOP('',(#1095,#1096,#1097,#1098));
#279=EDGE_LOOP('',(#1099,#1100,#1101,#1102));
#280=EDGE_LOOP('',(#1103,#1104,#1105,#1106));
#281=EDGE_LOOP('',(#1107,#1108,#1109,#1110));
#282=EDGE_LOOP('',(#1111,#1112,#1113,#1114));
#283=EDGE_LOOP('',(#1115,#1116,#1117));
#284=EDGE_LOOP('',(#1118,#1119,#1120));
#285=EDGE_LOOP('',(#1121,#1122,#1123,#1124));
#286=EDGE_LOOP('',(#1125,#1126,#1127,#1128));
#287=EDGE_LOOP('',(#1129,#1130,#1131));
#288=EDGE_LOOP('',(#1132,#1133,#1134,#1135));
#289=EDGE_LOOP('',(#1136,#1137,#1138,#1139));
#290=EDGE_LOOP('',(#1140,#1141,#1142));
#291=EDGE_LOOP('',(#1143,#1144,#1145));
#292=EDGE_LOOP('',(#1146,#1147,#1148,#1149));
#293=EDGE_LOOP('',(#1150,#1151,#1152,#1153));
#294=EDGE_LOOP('',(#1154,#1155,#1156,#1157));
#295=EDGE_LOOP('',(#1158,#1159,#1160,#1161));
#296=EDGE_LOOP('',(#1162,#1163,#1164,#1165,#1166,#1167,#1168,#1169));
#297=EDGE_LOOP('',(#1170,#1171,#1172,#1173));
#298=EDGE_LOOP('',(#1174,#1175,#1176,#1177));
#299=EDGE_LOOP('',(#1178,#1179,#1180,#1181));
#300=EDGE_LOOP('',(#1182,#1183,#1184,#1185,#1186,#1187,#1188,#1189,#1190,
#1191,#1192,#1193,#1194,#1195,#1196,#1197));
#301=EDGE_LOOP('',(#1198,#1199,#1200,#1201));
#302=EDGE_LOOP('',(#1202,#1203,#1204,#1205));
#303=EDGE_LOOP('',(#1206,#1207,#1208,#1209));
#304=EDGE_LOOP('',(#1210,#1211,#1212,#1213));
#305=EDGE_LOOP('',(#1214,#1215,#1216,#1217));
#306=EDGE_LOOP('',(#1218,#1219,#1220,#1221));
#307=EDGE_LOOP('',(#1222,#1223,#1224,#1225));
#308=EDGE_LOOP('',(#1226,#1227,#1228,#1229,#1230));
#309=EDGE_LOOP('',(#1231,#1232,#1233,#1234));
#310=EDGE_LOOP('',(#1235,#1236,#1237,#1238));
#311=LINE('',#1949,#434);
#312=LINE('',#1951,#435);
#313=LINE('',#1953,#436);
#314=LINE('',#1954,#437);
#315=LINE('',#1957,#438);
#316=LINE('',#1959,#439);
#317=LINE('',#1960,#440);
#318=LINE('',#1963,#441);
#319=LINE('',#1965,#442);
#320=LINE('',#1966,#443);
#321=LINE('',#1968,#444);
#322=LINE('',#1969,#445);
#323=LINE('',#1973,#446);
#324=LINE('',#1975,#447);
#325=LINE('',#1977,#448);
#326=LINE('',#1978,#449);
#327=LINE('',#1981,#450);
#328=LINE('',#1983,#451);
#329=LINE('',#1984,#452);
#330=LINE('',#1987,#453);
#331=LINE('',#1989,#454);
#332=LINE('',#1990,#455);
#333=LINE('',#1992,#456);
#334=LINE('',#1993,#457);
#335=LINE('',#1997,#458);
#336=LINE('',#1999,#459);
#337=LINE('',#2001,#460);
#338=LINE('',#2003,#461);
#339=LINE('',#2005,#462);
#340=LINE('',#2007,#463);
#341=LINE('',#2009,#464);
#342=LINE('',#2010,#465);
#343=LINE('',#2016,#466);
#344=LINE('',#2019,#467);
#345=LINE('',#2020,#468);
#346=LINE('',#2021,#469);
#347=LINE('',#2026,#470);
#348=LINE('',#2028,#471);
#349=LINE('',#2031,#472);
#350=LINE('',#2034,#473);
#351=LINE('',#2036,#474);
#352=LINE('',#2037,#475);
#353=LINE('',#2040,#476);
#354=LINE('',#2042,#477);
#355=LINE('',#2045,#478);
#356=LINE('',#2048,#479);
#357=LINE('',#2051,#480);
#358=LINE('',#2052,#481);
#359=LINE('',#2056,#482);
#360=LINE('',#2062,#483);
#361=LINE('',#2064,#484);
#362=LINE('',#2066,#485);
#363=LINE('',#2067,#486);
#364=LINE('',#2072,#487);
#365=LINE('',#2076,#488);
#366=LINE('',#2078,#489);
#367=LINE('',#2079,#490);
#368=LINE('',#2084,#491);
#369=LINE('',#2088,#492);
#370=LINE('',#2090,#493);
#371=LINE('',#2091,#494);
#372=LINE('',#2096,#495);
#373=LINE('',#2100,#496);
#374=LINE('',#2102,#497);
#375=LINE('',#2103,#498);
#376=LINE('',#2113,#499);
#377=LINE('',#2116,#500);
#378=LINE('',#2123,#501);
#379=LINE('',#2126,#502);
#380=LINE('',#2128,#503);
#381=LINE('',#2131,#504);
#382=LINE('',#2134,#505);
#383=LINE('',#2136,#506);
#384=LINE('',#2138,#507);
#385=LINE('',#2142,#508);
#386=LINE('',#2144,#509);
#387=LINE('',#2146,#510);
#388=LINE('',#2148,#511);
#389=LINE('',#2150,#512);
#390=LINE('',#2151,#513);
#391=LINE('',#2159,#514);
#392=LINE('',#2166,#515);
#393=LINE('',#2176,#516);
#394=LINE('',#2177,#517);
#395=LINE('',#2185,#518);
#396=LINE('',#2188,#519);
#397=LINE('',#2190,#520);
#398=LINE('',#2194,#521);
#399=LINE('',#2198,#522);
#400=LINE('',#2201,#523);
#401=LINE('',#2209,#524);
#402=LINE('',#2223,#525);
#403=LINE('',#2224,#526);
#404=LINE('',#2231,#527);
#405=LINE('',#2233,#528);
#406=LINE('',#2250,#529);
#407=LINE('',#2252,#530);
#408=LINE('',#2253,#531);
#409=LINE('',#2255,#532);
#410=LINE('',#2257,#533);
#411=LINE('',#2258,#534);
#412=LINE('',#2260,#535);
#413=LINE('',#2262,#536);
#414=LINE('',#2263,#537);
#415=LINE('',#2265,#538);
#416=LINE('',#2266,#539);
#417=LINE('',#2275,#540);
#418=LINE('',#2279,#541);
#419=LINE('',#2283,#542);
#420=LINE('',#2289,#543);
#421=LINE('',#2293,#544);
#422=LINE('',#2297,#545);
#423=LINE('',#2299,#546);
#424=LINE('',#2305,#547);
#425=LINE('',#2307,#548);
#426=LINE('',#2309,#549);
#427=LINE('',#2311,#550);
#428=LINE('',#2313,#551);
#429=LINE('',#2315,#552);
#430=LINE('',#2317,#553);
#431=LINE('',#2319,#554);
#432=LINE('',#2323,#555);
#433=LINE('',#2325,#556);
#434=VECTOR('',#1522,10.);
#435=VECTOR('',#1523,10.);
#436=VECTOR('',#1524,10.);
#437=VECTOR('',#1525,10.);
#438=VECTOR('',#1528,10.);
#439=VECTOR('',#1529,10.);
#440=VECTOR('',#1530,10.);
#441=VECTOR('',#1533,10.);
#442=VECTOR('',#1534,10.);
#443=VECTOR('',#1535,10.);
#444=VECTOR('',#1538,10.);
#445=VECTOR('',#1539,10.);
#446=VECTOR('',#1542,10.);
#447=VECTOR('',#1543,10.);
#448=VECTOR('',#1544,10.);
#449=VECTOR('',#1545,10.);
#450=VECTOR('',#1548,10.);
#451=VECTOR('',#1549,10.);
#452=VECTOR('',#1550,10.);
#453=VECTOR('',#1553,10.);
#454=VECTOR('',#1554,10.);
#455=VECTOR('',#1555,10.);
#456=VECTOR('',#1558,10.);
#457=VECTOR('',#1559,10.);
#458=VECTOR('',#1562,10.);
#459=VECTOR('',#1563,10.);
#460=VECTOR('',#1564,10.);
#461=VECTOR('',#1565,10.);
#462=VECTOR('',#1566,10.);
#463=VECTOR('',#1567,10.);
#464=VECTOR('',#1568,10.);
#465=VECTOR('',#1569,10.);
#466=VECTOR('',#1574,10.);
#467=VECTOR('',#1577,10.);
#468=VECTOR('',#1578,10.);
#469=VECTOR('',#1579,10.);
#470=VECTOR('',#1584,10.);
#471=VECTOR('',#1585,10.);
#472=VECTOR('',#1588,10.);
#473=VECTOR('',#1591,10.);
#474=VECTOR('',#1592,10.);
#475=VECTOR('',#1593,10.);
#476=VECTOR('',#1596,10.);
#477=VECTOR('',#1599,10.);
#478=VECTOR('',#1602,10.);
#479=VECTOR('',#1607,10.);
#480=VECTOR('',#1610,10.);
#481=VECTOR('',#1611,10.);
#482=VECTOR('',#1616,10.);
#483=VECTOR('',#1623,10.);
#484=VECTOR('',#1624,10.);
#485=VECTOR('',#1625,10.);
#486=VECTOR('',#1626,10.);
#487=VECTOR('',#1631,10.);
#488=VECTOR('',#1636,10.);
#489=VECTOR('',#1637,10.);
#490=VECTOR('',#1638,10.);
#491=VECTOR('',#1643,10.);
#492=VECTOR('',#1648,10.);
#493=VECTOR('',#1649,10.);
#494=VECTOR('',#1650,10.);
#495=VECTOR('',#1655,10.);
#496=VECTOR('',#1660,10.);
#497=VECTOR('',#1661,10.);
#498=VECTOR('',#1662,10.);
#499=VECTOR('',#1675,10.);
#500=VECTOR('',#1678,10.);
#501=VECTOR('',#1687,10.);
#502=VECTOR('',#1690,10.);
#503=VECTOR('',#1693,10.);
#504=VECTOR('',#1696,10.);
#505=VECTOR('',#1699,10.);
#506=VECTOR('',#1700,10.);
#507=VECTOR('',#1701,10.);
#508=VECTOR('',#1704,10.);
#509=VECTOR('',#1705,10.);
#510=VECTOR('',#1706,10.);
#511=VECTOR('',#1707,10.);
#512=VECTOR('',#1708,10.);
#513=VECTOR('',#1709,10.);
#514=VECTOR('',#1720,10.);
#515=VECTOR('',#1731,10.);
#516=VECTOR('',#1744,10.);
#517=VECTOR('',#1745,10.);
#518=VECTOR('',#1756,10.);
#519=VECTOR('',#1759,10.);
#520=VECTOR('',#1760,10.);
#521=VECTOR('',#1765,10.);
#522=VECTOR('',#1770,10.);
#523=VECTOR('',#1773,10.);
#524=VECTOR('',#1784,10.);
#525=VECTOR('',#1799,10.);
#526=VECTOR('',#1800,10.);
#527=VECTOR('',#1809,10.);
#528=VECTOR('',#1810,10.);
#529=VECTOR('',#1833,10.);
#530=VECTOR('',#1836,10.);
#531=VECTOR('',#1837,10.);
#532=VECTOR('',#1840,10.);
#533=VECTOR('',#1843,10.);
#534=VECTOR('',#1844,10.);
#535=VECTOR('',#1847,10.);
#536=VECTOR('',#1850,10.);
#537=VECTOR('',#1851,10.);
#538=VECTOR('',#1854,10.);
#539=VECTOR('',#1855,10.);
#540=VECTOR('',#1868,10.);
#541=VECTOR('',#1871,10.);
#542=VECTOR('',#1876,10.);
#543=VECTOR('',#1885,10.);
#544=VECTOR('',#1888,10.);
#545=VECTOR('',#1893,10.);
#546=VECTOR('',#1896,10.);
#547=VECTOR('',#1907,10.);
#548=VECTOR('',#1910,10.);
#549=VECTOR('',#1913,10.);
#550=VECTOR('',#1916,10.);
#551=VECTOR('',#1919,10.);
#552=VECTOR('',#1922,10.);
#553=VECTOR('',#1925,10.);
#554=VECTOR('',#1928,10.);
#555=VECTOR('',#1935,10.);
#556=VECTOR('',#1938,10.);
#557=VERTEX_POINT('',#1947);
#558=VERTEX_POINT('',#1948);
#559=VERTEX_POINT('',#1950);
#560=VERTEX_POINT('',#1952);
#561=VERTEX_POINT('',#1956);
#562=VERTEX_POINT('',#1958);
#563=VERTEX_POINT('',#1962);
#564=VERTEX_POINT('',#1964);
#565=VERTEX_POINT('',#1971);
#566=VERTEX_POINT('',#1972);
#567=VERTEX_POINT('',#1974);
#568=VERTEX_POINT('',#1976);
#569=VERTEX_POINT('',#1980);
#570=VERTEX_POINT('',#1982);
#571=VERTEX_POINT('',#1986);
#572=VERTEX_POINT('',#1988);
#573=VERTEX_POINT('',#1995);
#574=VERTEX_POINT('',#1996);
#575=VERTEX_POINT('',#1998);
#576=VERTEX_POINT('',#2000);
#577=VERTEX_POINT('',#2002);
#578=VERTEX_POINT('',#2004);
#579=VERTEX_POINT('',#2006);
#580=VERTEX_POINT('',#2008);
#581=VERTEX_POINT('',#2012);
#582=VERTEX_POINT('',#2013);
#583=VERTEX_POINT('',#2015);
#584=VERTEX_POINT('',#2017);
#585=VERTEX_POINT('',#2023);
#586=VERTEX_POINT('',#2024);
#587=VERTEX_POINT('',#2027);
#588=VERTEX_POINT('',#2029);
#589=VERTEX_POINT('',#2033);
#590=VERTEX_POINT('',#2035);
#591=VERTEX_POINT('',#2039);
#592=VERTEX_POINT('',#2044);
#593=VERTEX_POINT('',#2050);
#594=VERTEX_POINT('',#2054);
#595=VERTEX_POINT('',#2060);
#596=VERTEX_POINT('',#2061);
#597=VERTEX_POINT('',#2063);
#598=VERTEX_POINT('',#2065);
#599=VERTEX_POINT('',#2069);
#600=VERTEX_POINT('',#2071);
#601=VERTEX_POINT('',#2075);
#602=VERTEX_POINT('',#2077);
#603=VERTEX_POINT('',#2081);
#604=VERTEX_POINT('',#2083);
#605=VERTEX_POINT('',#2087);
#606=VERTEX_POINT('',#2089);
#607=VERTEX_POINT('',#2093);
#608=VERTEX_POINT('',#2095);
#609=VERTEX_POINT('',#2099);
#610=VERTEX_POINT('',#2101);
#611=VERTEX_POINT('',#2109);
#612=VERTEX_POINT('',#2110);
#613=VERTEX_POINT('',#2112);
#614=VERTEX_POINT('',#2114);
#615=VERTEX_POINT('',#2118);
#616=VERTEX_POINT('',#2122);
#617=VERTEX_POINT('',#2124);
#618=VERTEX_POINT('',#2129);
#619=VERTEX_POINT('',#2133);
#620=VERTEX_POINT('',#2135);
#621=VERTEX_POINT('',#2137);
#622=VERTEX_POINT('',#2139);
#623=VERTEX_POINT('',#2141);
#624=VERTEX_POINT('',#2143);
#625=VERTEX_POINT('',#2145);
#626=VERTEX_POINT('',#2147);
#627=VERTEX_POINT('',#2149);
#628=VERTEX_POINT('',#2153);
#629=VERTEX_POINT('',#2154);
#630=VERTEX_POINT('',#2161);
#631=VERTEX_POINT('',#2169);
#632=VERTEX_POINT('',#2170);
#633=VERTEX_POINT('',#2172);
#634=VERTEX_POINT('',#2179);
#635=VERTEX_POINT('',#2180);
#636=VERTEX_POINT('',#2187);
#637=VERTEX_POINT('',#2189);
#638=VERTEX_POINT('',#2193);
#639=VERTEX_POINT('',#2197);
#640=VERTEX_POINT('',#2199);
#641=VERTEX_POINT('',#2203);
#642=VERTEX_POINT('',#2204);
#643=VERTEX_POINT('',#2211);
#644=VERTEX_POINT('',#2212);
#645=VERTEX_POINT('',#2214);
#646=VERTEX_POINT('',#2216);
#647=VERTEX_POINT('',#2220);
#648=VERTEX_POINT('',#2221);
#649=VERTEX_POINT('',#2226);
#650=VERTEX_POINT('',#2230);
#651=VERTEX_POINT('',#2232);
#652=VERTEX_POINT('',#2236);
#653=VERTEX_POINT('',#2238);
#654=VERTEX_POINT('',#2242);
#655=VERTEX_POINT('',#2244);
#656=VERTEX_POINT('',#2248);
#657=VERTEX_POINT('',#2270);
#658=VERTEX_POINT('',#2274);
#659=VERTEX_POINT('',#2276);
#660=VERTEX_POINT('',#2278);
#661=VERTEX_POINT('',#2282);
#662=VERTEX_POINT('',#2288);
#663=VERTEX_POINT('',#2290);
#664=VERTEX_POINT('',#2292);
#665=VERTEX_POINT('',#2296);
#666=EDGE_CURVE('',#557,#558,#311,.T.);
#667=EDGE_CURVE('',#559,#557,#312,.T.);
#668=EDGE_CURVE('',#560,#559,#313,.T.);
#669=EDGE_CURVE('',#560,#558,#314,.T.);
#670=EDGE_CURVE('',#558,#561,#315,.T.);
#671=EDGE_CURVE('',#562,#560,#316,.T.);
#672=EDGE_CURVE('',#562,#561,#317,.T.);
#673=EDGE_CURVE('',#561,#563,#318,.T.);
#674=EDGE_CURVE('',#564,#562,#319,.T.);
#675=EDGE_CURVE('',#564,#563,#320,.T.);
#676=EDGE_CURVE('',#563,#557,#321,.T.);
#677=EDGE_CURVE('',#559,#564,#322,.T.);
#678=EDGE_CURVE('',#565,#566,#323,.T.);
#679=EDGE_CURVE('',#565,#567,#324,.T.);
#680=EDGE_CURVE('',#568,#567,#325,.T.);
#681=EDGE_CURVE('',#566,#568,#326,.T.);
#682=EDGE_CURVE('',#569,#565,#327,.T.);
#683=EDGE_CURVE('',#569,#570,#328,.T.);
#684=EDGE_CURVE('',#567,#570,#329,.T.);
#685=EDGE_CURVE('',#571,#569,#330,.T.);
#686=EDGE_CURVE('',#571,#572,#331,.T.);
#687=EDGE_CURVE('',#570,#572,#332,.T.);
#688=EDGE_CURVE('',#566,#571,#333,.T.);
#689=EDGE_CURVE('',#572,#568,#334,.T.);
#690=EDGE_CURVE('',#573,#574,#335,.T.);
#691=EDGE_CURVE('',#575,#573,#336,.T.);
#692=EDGE_CURVE('',#576,#575,#337,.T.);
#693=EDGE_CURVE('',#577,#576,#338,.T.);
#694=EDGE_CURVE('',#578,#577,#339,.T.);
#695=EDGE_CURVE('',#578,#579,#340,.T.);
#696=EDGE_CURVE('',#580,#579,#341,.T.);
#697=EDGE_CURVE('',#574,#580,#342,.T.);
#698=EDGE_CURVE('',#581,#582,#128,.T.);
#699=EDGE_CURVE('',#583,#581,#343,.T.);
#700=EDGE_CURVE('',#584,#583,#129,.T.);
#701=EDGE_CURVE('',#577,#584,#344,.T.);
#702=EDGE_CURVE('',#574,#576,#345,.T.);
#703=EDGE_CURVE('',#582,#580,#346,.T.);
#704=EDGE_CURVE('',#585,#586,#130,.T.);
#705=EDGE_CURVE('',#579,#585,#347,.T.);
#706=EDGE_CURVE('',#587,#578,#348,.T.);
#707=EDGE_CURVE('',#588,#587,#131,.T.);
#708=EDGE_CURVE('',#586,#588,#349,.T.);
#709=EDGE_CURVE('',#589,#576,#350,.T.);
#710=EDGE_CURVE('',#589,#590,#351,.T.);
#711=EDGE_CURVE('',#574,#590,#352,.T.);
#712=EDGE_CURVE('',#582,#591,#353,.T.);
#713=EDGE_CURVE('',#591,#590,#132,.T.);
#714=EDGE_CURVE('',#590,#581,#354,.T.);
#715=EDGE_CURVE('',#586,#592,#355,.T.);
#716=EDGE_CURVE('',#592,#585,#30,.T.);
#717=EDGE_CURVE('',#583,#589,#356,.T.);
#718=EDGE_CURVE('',#593,#588,#357,.T.);
#719=EDGE_CURVE('',#592,#593,#358,.T.);
#720=EDGE_CURVE('',#594,#589,#133,.T.);
#721=EDGE_CURVE('',#594,#584,#359,.T.);
#722=EDGE_CURVE('',#593,#587,#31,.T.);
#723=EDGE_CURVE('',#595,#596,#360,.T.);
#724=EDGE_CURVE('',#595,#597,#361,.T.);
#725=EDGE_CURVE('',#597,#598,#362,.T.);
#726=EDGE_CURVE('',#596,#598,#363,.T.);
#727=EDGE_CURVE('',#599,#595,#32,.T.);
#728=EDGE_CURVE('',#599,#600,#364,.T.);
#729=EDGE_CURVE('',#600,#597,#33,.T.);
#730=EDGE_CURVE('',#601,#599,#365,.T.);
#731=EDGE_CURVE('',#601,#602,#366,.T.);
#732=EDGE_CURVE('',#602,#600,#367,.T.);
#733=EDGE_CURVE('',#603,#601,#34,.T.);
#734=EDGE_CURVE('',#603,#604,#368,.T.);
#735=EDGE_CURVE('',#604,#602,#35,.T.);
#736=EDGE_CURVE('',#605,#603,#369,.T.);
#737=EDGE_CURVE('',#605,#606,#370,.T.);
#738=EDGE_CURVE('',#606,#604,#371,.T.);
#739=EDGE_CURVE('',#607,#605,#36,.T.);
#740=EDGE_CURVE('',#607,#608,#372,.T.);
#741=EDGE_CURVE('',#608,#606,#37,.T.);
#742=EDGE_CURVE('',#609,#607,#373,.T.);
#743=EDGE_CURVE('',#609,#610,#374,.T.);
#744=EDGE_CURVE('',#610,#608,#375,.T.);
#745=EDGE_CURVE('',#596,#609,#38,.T.);
#746=EDGE_CURVE('',#598,#610,#39,.T.);
#747=EDGE_CURVE('',#611,#612,#40,.F.);
#748=EDGE_CURVE('',#612,#613,#376,.T.);
#749=EDGE_CURVE('',#613,#614,#41,.T.);
#750=EDGE_CURVE('',#614,#611,#377,.T.);
#751=EDGE_CURVE('',#613,#615,#42,.T.);
#752=EDGE_CURVE('',#615,#614,#43,.T.);
#753=EDGE_CURVE('',#615,#616,#378,.T.);
#754=EDGE_CURVE('',#617,#616,#44,.T.);
#755=EDGE_CURVE('',#617,#614,#379,.T.);
#756=EDGE_CURVE('',#613,#585,#380,.T.);
#757=EDGE_CURVE('',#618,#585,#45,.T.);
#758=EDGE_CURVE('',#618,#615,#381,.T.);
#759=EDGE_CURVE('',#612,#619,#382,.T.);
#760=EDGE_CURVE('',#620,#619,#383,.T.);
#761=EDGE_CURVE('',#621,#620,#384,.T.);
#762=EDGE_CURVE('',#622,#621,#46,.T.);
#763=EDGE_CURVE('',#623,#622,#385,.T.);
#764=EDGE_CURVE('',#624,#623,#386,.T.);
#765=EDGE_CURVE('',#625,#624,#387,.T.);
#766=EDGE_CURVE('',#626,#625,#388,.T.);
#767=EDGE_CURVE('',#627,#626,#389,.T.);
#768=EDGE_CURVE('',#591,#627,#390,.T.);
#769=EDGE_CURVE('',#628,#629,#47,.F.);
#770=EDGE_CURVE('',#575,#628,#48,.F.);
#771=EDGE_CURVE('',#629,#575,#49,.F.);
#772=EDGE_CURVE('',#628,#594,#391,.T.);
#773=EDGE_CURVE('',#630,#627,#50,.F.);
#774=EDGE_CURVE('',#573,#630,#51,.F.);
#775=EDGE_CURVE('',#627,#573,#52,.F.);
#776=EDGE_CURVE('',#630,#629,#392,.T.);
#777=EDGE_CURVE('',#631,#632,#53,.F.);
#778=EDGE_CURVE('',#633,#631,#54,.F.);
#779=EDGE_CURVE('',#632,#633,#55,.F.);
#780=EDGE_CURVE('',#631,#628,#393,.T.);
#781=EDGE_CURVE('',#629,#633,#394,.T.);
#782=EDGE_CURVE('',#634,#635,#56,.F.);
#783=EDGE_CURVE('',#626,#634,#57,.F.);
#784=EDGE_CURVE('',#635,#626,#58,.F.);
#785=EDGE_CURVE('',#634,#630,#395,.T.);
#786=EDGE_CURVE('',#636,#631,#396,.T.);
#787=EDGE_CURVE('',#632,#637,#397,.T.);
#788=EDGE_CURVE('',#637,#636,#134,.T.);
#789=EDGE_CURVE('',#638,#635,#398,.T.);
#790=EDGE_CURVE('',#625,#638,#135,.T.);
#791=EDGE_CURVE('',#637,#639,#399,.T.);
#792=EDGE_CURVE('',#639,#640,#136,.T.);
#793=EDGE_CURVE('',#640,#636,#400,.T.);
#794=EDGE_CURVE('',#641,#642,#59,.F.);
#795=EDGE_CURVE('',#624,#641,#60,.F.);
#796=EDGE_CURVE('',#642,#624,#61,.F.);
#797=EDGE_CURVE('',#641,#638,#401,.T.);
#798=EDGE_CURVE('',#643,#644,#62,.F.);
#799=EDGE_CURVE('',#645,#643,#63,.T.);
#800=EDGE_CURVE('',#645,#646,#64,.T.);
#801=EDGE_CURVE('',#644,#646,#65,.T.);
#802=EDGE_CURVE('',#647,#648,#66,.T.);
#803=EDGE_CURVE('',#648,#645,#402,.T.);
#804=EDGE_CURVE('',#643,#647,#403,.T.);
#805=EDGE_CURVE('',#647,#649,#67,.T.);
#806=EDGE_CURVE('',#649,#648,#68,.T.);
#807=EDGE_CURVE('',#650,#644,#404,.T.);
#808=EDGE_CURVE('',#646,#651,#405,.T.);
#809=EDGE_CURVE('',#651,#650,#137,.T.);
#810=EDGE_CURVE('',#623,#652,#69,.F.);
#811=EDGE_CURVE('',#653,#623,#70,.F.);
#812=EDGE_CURVE('',#652,#653,#71,.F.);
#813=EDGE_CURVE('',#654,#621,#72,.T.);
#814=EDGE_CURVE('',#655,#654,#73,.F.);
#815=EDGE_CURVE('',#622,#655,#74,.T.);
#816=EDGE_CURVE('',#620,#656,#75,.T.);
#817=EDGE_CURVE('',#656,#654,#406,.T.);
#818=EDGE_CURVE('',#654,#643,#407,.T.);
#819=EDGE_CURVE('',#644,#655,#408,.T.);
#820=EDGE_CURVE('',#655,#653,#409,.T.);
#821=EDGE_CURVE('',#651,#652,#410,.T.);
#822=EDGE_CURVE('',#653,#650,#411,.T.);
#823=EDGE_CURVE('',#652,#642,#412,.T.);
#824=EDGE_CURVE('',#639,#641,#413,.T.);
#825=EDGE_CURVE('',#642,#640,#414,.T.);
#826=EDGE_CURVE('',#635,#632,#415,.T.);
#827=EDGE_CURVE('',#633,#634,#416,.T.);
#828=EDGE_CURVE('',#592,#618,#76,.T.);
#829=EDGE_CURVE('',#587,#657,#77,.T.);
#830=EDGE_CURVE('',#657,#593,#78,.T.);
#831=EDGE_CURVE('',#619,#658,#417,.T.);
#832=EDGE_CURVE('',#658,#659,#79,.T.);
#833=EDGE_CURVE('',#659,#660,#418,.T.);
#834=EDGE_CURVE('',#660,#619,#138,.T.);
#835=EDGE_CURVE('',#660,#661,#419,.T.);
#836=EDGE_CURVE('',#661,#620,#80,.T.);
#837=EDGE_CURVE('',#661,#656,#81,.T.);
#838=EDGE_CURVE('',#662,#617,#420,.T.);
#839=EDGE_CURVE('',#617,#663,#82,.T.);
#840=EDGE_CURVE('',#663,#664,#421,.T.);
#841=EDGE_CURVE('',#664,#662,#139,.T.);
#842=EDGE_CURVE('',#664,#665,#422,.T.);
#843=EDGE_CURVE('',#665,#658,#83,.T.);
#844=EDGE_CURVE('',#658,#662,#423,.T.);
#845=EDGE_CURVE('',#616,#663,#84,.T.);
#846=EDGE_CURVE('',#665,#659,#85,.T.);
#847=EDGE_CURVE('',#638,#637,#424,.T.);
#848=EDGE_CURVE('',#651,#640,#425,.T.);
#849=EDGE_CURVE('',#647,#656,#426,.T.);
#850=EDGE_CURVE('',#661,#649,#427,.T.);
#851=EDGE_CURVE('',#649,#659,#428,.T.);
#852=EDGE_CURVE('',#665,#648,#429,.T.);
#853=EDGE_CURVE('',#587,#663,#430,.T.);
#854=EDGE_CURVE('',#616,#657,#431,.T.);
#855=EDGE_CURVE('',#657,#618,#432,.T.);
#856=EDGE_CURVE('',#611,#662,#433,.T.);
#857=ORIENTED_EDGE('',*,*,#666,.F.);
#858=ORIENTED_EDGE('',*,*,#667,.F.);
#859=ORIENTED_EDGE('',*,*,#668,.F.);
#860=ORIENTED_EDGE('',*,*,#669,.T.);
#861=ORIENTED_EDGE('',*,*,#670,.F.);
#862=ORIENTED_EDGE('',*,*,#669,.F.);
#863=ORIENTED_EDGE('',*,*,#671,.F.);
#864=ORIENTED_EDGE('',*,*,#672,.T.);
#865=ORIENTED_EDGE('',*,*,#673,.F.);
#866=ORIENTED_EDGE('',*,*,#672,.F.);
#867=ORIENTED_EDGE('',*,*,#674,.F.);
#868=ORIENTED_EDGE('',*,*,#675,.T.);
#869=ORIENTED_EDGE('',*,*,#676,.F.);
#870=ORIENTED_EDGE('',*,*,#675,.F.);
#871=ORIENTED_EDGE('',*,*,#677,.F.);
#872=ORIENTED_EDGE('',*,*,#667,.T.);
#873=ORIENTED_EDGE('',*,*,#678,.F.);
#874=ORIENTED_EDGE('',*,*,#679,.T.);
#875=ORIENTED_EDGE('',*,*,#680,.F.);
#876=ORIENTED_EDGE('',*,*,#681,.F.);
#877=ORIENTED_EDGE('',*,*,#682,.F.);
#878=ORIENTED_EDGE('',*,*,#683,.T.);
#879=ORIENTED_EDGE('',*,*,#684,.F.);
#880=ORIENTED_EDGE('',*,*,#679,.F.);
#881=ORIENTED_EDGE('',*,*,#685,.F.);
#882=ORIENTED_EDGE('',*,*,#686,.T.);
#883=ORIENTED_EDGE('',*,*,#687,.F.);
#884=ORIENTED_EDGE('',*,*,#683,.F.);
#885=ORIENTED_EDGE('',*,*,#688,.F.);
#886=ORIENTED_EDGE('',*,*,#681,.T.);
#887=ORIENTED_EDGE('',*,*,#689,.F.);
#888=ORIENTED_EDGE('',*,*,#686,.F.);
#889=ORIENTED_EDGE('',*,*,#690,.F.);
#890=ORIENTED_EDGE('',*,*,#691,.F.);
#891=ORIENTED_EDGE('',*,*,#692,.F.);
#892=ORIENTED_EDGE('',*,*,#693,.F.);
#893=ORIENTED_EDGE('',*,*,#694,.F.);
#894=ORIENTED_EDGE('',*,*,#695,.T.);
#895=ORIENTED_EDGE('',*,*,#696,.F.);
#896=ORIENTED_EDGE('',*,*,#697,.F.);
#897=ORIENTED_EDGE('',*,*,#698,.F.);
#898=ORIENTED_EDGE('',*,*,#699,.F.);
#899=ORIENTED_EDGE('',*,*,#700,.F.);
#900=ORIENTED_EDGE('',*,*,#701,.F.);
#901=ORIENTED_EDGE('',*,*,#693,.T.);
#902=ORIENTED_EDGE('',*,*,#702,.F.);
#903=ORIENTED_EDGE('',*,*,#697,.T.);
#904=ORIENTED_EDGE('',*,*,#703,.F.);
#905=ORIENTED_EDGE('',*,*,#704,.F.);
#906=ORIENTED_EDGE('',*,*,#705,.F.);
#907=ORIENTED_EDGE('',*,*,#695,.F.);
#908=ORIENTED_EDGE('',*,*,#706,.F.);
#909=ORIENTED_EDGE('',*,*,#707,.F.);
#910=ORIENTED_EDGE('',*,*,#708,.F.);
#911=ORIENTED_EDGE('',*,*,#702,.T.);
#912=ORIENTED_EDGE('',*,*,#709,.F.);
#913=ORIENTED_EDGE('',*,*,#710,.T.);
#914=ORIENTED_EDGE('',*,*,#711,.F.);
#915=ORIENTED_EDGE('',*,*,#680,.T.);
#916=ORIENTED_EDGE('',*,*,#684,.T.);
#917=ORIENTED_EDGE('',*,*,#687,.T.);
#918=ORIENTED_EDGE('',*,*,#689,.T.);
#919=ORIENTED_EDGE('',*,*,#698,.T.);
#920=ORIENTED_EDGE('',*,*,#712,.T.);
#921=ORIENTED_EDGE('',*,*,#713,.T.);
#922=ORIENTED_EDGE('',*,*,#714,.T.);
#923=ORIENTED_EDGE('',*,*,#704,.T.);
#924=ORIENTED_EDGE('',*,*,#715,.T.);
#925=ORIENTED_EDGE('',*,*,#716,.T.);
#926=ORIENTED_EDGE('',*,*,#699,.T.);
#927=ORIENTED_EDGE('',*,*,#714,.F.);
#928=ORIENTED_EDGE('',*,*,#710,.F.);
#929=ORIENTED_EDGE('',*,*,#717,.F.);
#930=ORIENTED_EDGE('',*,*,#708,.T.);
#931=ORIENTED_EDGE('',*,*,#718,.F.);
#932=ORIENTED_EDGE('',*,*,#719,.F.);
#933=ORIENTED_EDGE('',*,*,#715,.F.);
#934=ORIENTED_EDGE('',*,*,#700,.T.);
#935=ORIENTED_EDGE('',*,*,#717,.T.);
#936=ORIENTED_EDGE('',*,*,#720,.F.);
#937=ORIENTED_EDGE('',*,*,#721,.T.);
#938=ORIENTED_EDGE('',*,*,#707,.T.);
#939=ORIENTED_EDGE('',*,*,#722,.F.);
#940=ORIENTED_EDGE('',*,*,#718,.T.);
#941=ORIENTED_EDGE('',*,*,#723,.F.);
#942=ORIENTED_EDGE('',*,*,#724,.T.);
#943=ORIENTED_EDGE('',*,*,#725,.T.);
#944=ORIENTED_EDGE('',*,*,#726,.F.);
#945=ORIENTED_EDGE('',*,*,#727,.F.);
#946=ORIENTED_EDGE('',*,*,#728,.T.);
#947=ORIENTED_EDGE('',*,*,#729,.T.);
#948=ORIENTED_EDGE('',*,*,#724,.F.);
#949=ORIENTED_EDGE('',*,*,#730,.F.);
#950=ORIENTED_EDGE('',*,*,#731,.T.);
#951=ORIENTED_EDGE('',*,*,#732,.T.);
#952=ORIENTED_EDGE('',*,*,#728,.F.);
#953=ORIENTED_EDGE('',*,*,#733,.F.);
#954=ORIENTED_EDGE('',*,*,#734,.T.);
#955=ORIENTED_EDGE('',*,*,#735,.T.);
#956=ORIENTED_EDGE('',*,*,#731,.F.);
#957=ORIENTED_EDGE('',*,*,#736,.F.);
#958=ORIENTED_EDGE('',*,*,#737,.T.);
#959=ORIENTED_EDGE('',*,*,#738,.T.);
#960=ORIENTED_EDGE('',*,*,#734,.F.);
#961=ORIENTED_EDGE('',*,*,#739,.F.);
#962=ORIENTED_EDGE('',*,*,#740,.T.);
#963=ORIENTED_EDGE('',*,*,#741,.T.);
#964=ORIENTED_EDGE('',*,*,#737,.F.);
#965=ORIENTED_EDGE('',*,*,#742,.F.);
#966=ORIENTED_EDGE('',*,*,#743,.T.);
#967=ORIENTED_EDGE('',*,*,#744,.T.);
#968=ORIENTED_EDGE('',*,*,#740,.F.);
#969=ORIENTED_EDGE('',*,*,#745,.F.);
#970=ORIENTED_EDGE('',*,*,#726,.T.);
#971=ORIENTED_EDGE('',*,*,#746,.T.);
#972=ORIENTED_EDGE('',*,*,#743,.F.);
#973=ORIENTED_EDGE('',*,*,#746,.F.);
#974=ORIENTED_EDGE('',*,*,#725,.F.);
#975=ORIENTED_EDGE('',*,*,#729,.F.);
#976=ORIENTED_EDGE('',*,*,#732,.F.);
#977=ORIENTED_EDGE('',*,*,#735,.F.);
#978=ORIENTED_EDGE('',*,*,#738,.F.);
#979=ORIENTED_EDGE('',*,*,#741,.F.);
#980=ORIENTED_EDGE('',*,*,#744,.F.);
#981=ORIENTED_EDGE('',*,*,#747,.T.);
#982=ORIENTED_EDGE('',*,*,#748,.T.);
#983=ORIENTED_EDGE('',*,*,#749,.T.);
#984=ORIENTED_EDGE('',*,*,#750,.T.);
#985=ORIENTED_EDGE('',*,*,#749,.F.);
#986=ORIENTED_EDGE('',*,*,#751,.T.);
#987=ORIENTED_EDGE('',*,*,#752,.T.);
#988=ORIENTED_EDGE('',*,*,#752,.F.);
#989=ORIENTED_EDGE('',*,*,#753,.T.);
#990=ORIENTED_EDGE('',*,*,#754,.F.);
#991=ORIENTED_EDGE('',*,*,#755,.T.);
#992=ORIENTED_EDGE('',*,*,#751,.F.);
#993=ORIENTED_EDGE('',*,*,#756,.T.);
#994=ORIENTED_EDGE('',*,*,#757,.F.);
#995=ORIENTED_EDGE('',*,*,#758,.T.);
#996=ORIENTED_EDGE('',*,*,#748,.F.);
#997=ORIENTED_EDGE('',*,*,#759,.T.);
#998=ORIENTED_EDGE('',*,*,#760,.F.);
#999=ORIENTED_EDGE('',*,*,#761,.F.);
#1000=ORIENTED_EDGE('',*,*,#762,.F.);
#1001=ORIENTED_EDGE('',*,*,#763,.F.);
#1002=ORIENTED_EDGE('',*,*,#764,.F.);
#1003=ORIENTED_EDGE('',*,*,#765,.F.);
#1004=ORIENTED_EDGE('',*,*,#766,.F.);
#1005=ORIENTED_EDGE('',*,*,#767,.F.);
#1006=ORIENTED_EDGE('',*,*,#768,.F.);
#1007=ORIENTED_EDGE('',*,*,#712,.F.);
#1008=ORIENTED_EDGE('',*,*,#703,.T.);
#1009=ORIENTED_EDGE('',*,*,#696,.T.);
#1010=ORIENTED_EDGE('',*,*,#705,.T.);
#1011=ORIENTED_EDGE('',*,*,#756,.F.);
#1012=ORIENTED_EDGE('',*,*,#769,.F.);
#1013=ORIENTED_EDGE('',*,*,#770,.F.);
#1014=ORIENTED_EDGE('',*,*,#771,.F.);
#1015=ORIENTED_EDGE('',*,*,#709,.T.);
#1016=ORIENTED_EDGE('',*,*,#692,.T.);
#1017=ORIENTED_EDGE('',*,*,#770,.T.);
#1018=ORIENTED_EDGE('',*,*,#772,.T.);
#1019=ORIENTED_EDGE('',*,*,#720,.T.);
#1020=ORIENTED_EDGE('',*,*,#773,.F.);
#1021=ORIENTED_EDGE('',*,*,#774,.F.);
#1022=ORIENTED_EDGE('',*,*,#775,.F.);
#1023=ORIENTED_EDGE('',*,*,#774,.T.);
#1024=ORIENTED_EDGE('',*,*,#776,.T.);
#1025=ORIENTED_EDGE('',*,*,#771,.T.);
#1026=ORIENTED_EDGE('',*,*,#691,.T.);
#1027=ORIENTED_EDGE('',*,*,#768,.T.);
#1028=ORIENTED_EDGE('',*,*,#775,.T.);
#1029=ORIENTED_EDGE('',*,*,#690,.T.);
#1030=ORIENTED_EDGE('',*,*,#711,.T.);
#1031=ORIENTED_EDGE('',*,*,#713,.F.);
#1032=ORIENTED_EDGE('',*,*,#777,.F.);
#1033=ORIENTED_EDGE('',*,*,#778,.F.);
#1034=ORIENTED_EDGE('',*,*,#779,.F.);
#1035=ORIENTED_EDGE('',*,*,#778,.T.);
#1036=ORIENTED_EDGE('',*,*,#780,.T.);
#1037=ORIENTED_EDGE('',*,*,#769,.T.);
#1038=ORIENTED_EDGE('',*,*,#781,.T.);
#1039=ORIENTED_EDGE('',*,*,#782,.F.);
#1040=ORIENTED_EDGE('',*,*,#783,.F.);
#1041=ORIENTED_EDGE('',*,*,#784,.F.);
#1042=ORIENTED_EDGE('',*,*,#783,.T.);
#1043=ORIENTED_EDGE('',*,*,#785,.T.);
#1044=ORIENTED_EDGE('',*,*,#773,.T.);
#1045=ORIENTED_EDGE('',*,*,#767,.T.);
#1046=ORIENTED_EDGE('',*,*,#786,.T.);
#1047=ORIENTED_EDGE('',*,*,#777,.T.);
#1048=ORIENTED_EDGE('',*,*,#787,.T.);
#1049=ORIENTED_EDGE('',*,*,#788,.T.);
#1050=ORIENTED_EDGE('',*,*,#789,.T.);
#1051=ORIENTED_EDGE('',*,*,#784,.T.);
#1052=ORIENTED_EDGE('',*,*,#766,.T.);
#1053=ORIENTED_EDGE('',*,*,#790,.T.);
#1054=ORIENTED_EDGE('',*,*,#791,.T.);
#1055=ORIENTED_EDGE('',*,*,#792,.T.);
#1056=ORIENTED_EDGE('',*,*,#793,.T.);
#1057=ORIENTED_EDGE('',*,*,#788,.F.);
#1058=ORIENTED_EDGE('',*,*,#794,.F.);
#1059=ORIENTED_EDGE('',*,*,#795,.F.);
#1060=ORIENTED_EDGE('',*,*,#796,.F.);
#1061=ORIENTED_EDGE('',*,*,#765,.T.);
#1062=ORIENTED_EDGE('',*,*,#795,.T.);
#1063=ORIENTED_EDGE('',*,*,#797,.T.);
#1064=ORIENTED_EDGE('',*,*,#790,.F.);
#1065=ORIENTED_EDGE('',*,*,#798,.F.);
#1066=ORIENTED_EDGE('',*,*,#799,.F.);
#1067=ORIENTED_EDGE('',*,*,#800,.T.);
#1068=ORIENTED_EDGE('',*,*,#801,.F.);
#1069=ORIENTED_EDGE('',*,*,#802,.T.);
#1070=ORIENTED_EDGE('',*,*,#803,.T.);
#1071=ORIENTED_EDGE('',*,*,#799,.T.);
#1072=ORIENTED_EDGE('',*,*,#804,.T.);
#1073=ORIENTED_EDGE('',*,*,#802,.F.);
#1074=ORIENTED_EDGE('',*,*,#805,.T.);
#1075=ORIENTED_EDGE('',*,*,#806,.T.);
#1076=ORIENTED_EDGE('',*,*,#807,.T.);
#1077=ORIENTED_EDGE('',*,*,#801,.T.);
#1078=ORIENTED_EDGE('',*,*,#808,.T.);
#1079=ORIENTED_EDGE('',*,*,#809,.T.);
#1080=ORIENTED_EDGE('',*,*,#810,.F.);
#1081=ORIENTED_EDGE('',*,*,#811,.F.);
#1082=ORIENTED_EDGE('',*,*,#812,.F.);
#1083=ORIENTED_EDGE('',*,*,#762,.T.);
#1084=ORIENTED_EDGE('',*,*,#813,.F.);
#1085=ORIENTED_EDGE('',*,*,#814,.F.);
#1086=ORIENTED_EDGE('',*,*,#815,.F.);
#1087=ORIENTED_EDGE('',*,*,#816,.T.);
#1088=ORIENTED_EDGE('',*,*,#817,.T.);
#1089=ORIENTED_EDGE('',*,*,#813,.T.);
#1090=ORIENTED_EDGE('',*,*,#761,.T.);
#1091=ORIENTED_EDGE('',*,*,#814,.T.);
#1092=ORIENTED_EDGE('',*,*,#818,.T.);
#1093=ORIENTED_EDGE('',*,*,#798,.T.);
#1094=ORIENTED_EDGE('',*,*,#819,.T.);
#1095=ORIENTED_EDGE('',*,*,#811,.T.);
#1096=ORIENTED_EDGE('',*,*,#763,.T.);
#1097=ORIENTED_EDGE('',*,*,#815,.T.);
#1098=ORIENTED_EDGE('',*,*,#820,.T.);
#1099=ORIENTED_EDGE('',*,*,#821,.T.);
#1100=ORIENTED_EDGE('',*,*,#812,.T.);
#1101=ORIENTED_EDGE('',*,*,#822,.T.);
#1102=ORIENTED_EDGE('',*,*,#809,.F.);
#1103=ORIENTED_EDGE('',*,*,#810,.T.);
#1104=ORIENTED_EDGE('',*,*,#823,.T.);
#1105=ORIENTED_EDGE('',*,*,#796,.T.);
#1106=ORIENTED_EDGE('',*,*,#764,.T.);
#1107=ORIENTED_EDGE('',*,*,#824,.T.);
#1108=ORIENTED_EDGE('',*,*,#794,.T.);
#1109=ORIENTED_EDGE('',*,*,#825,.T.);
#1110=ORIENTED_EDGE('',*,*,#792,.F.);
#1111=ORIENTED_EDGE('',*,*,#782,.T.);
#1112=ORIENTED_EDGE('',*,*,#826,.T.);
#1113=ORIENTED_EDGE('',*,*,#779,.T.);
#1114=ORIENTED_EDGE('',*,*,#827,.T.);
#1115=ORIENTED_EDGE('',*,*,#716,.F.);
#1116=ORIENTED_EDGE('',*,*,#828,.T.);
#1117=ORIENTED_EDGE('',*,*,#757,.T.);
#1118=ORIENTED_EDGE('',*,*,#722,.T.);
#1119=ORIENTED_EDGE('',*,*,#829,.T.);
#1120=ORIENTED_EDGE('',*,*,#830,.T.);
#1121=ORIENTED_EDGE('',*,*,#831,.T.);
#1122=ORIENTED_EDGE('',*,*,#832,.T.);
#1123=ORIENTED_EDGE('',*,*,#833,.T.);
#1124=ORIENTED_EDGE('',*,*,#834,.T.);
#1125=ORIENTED_EDGE('',*,*,#835,.T.);
#1126=ORIENTED_EDGE('',*,*,#836,.T.);
#1127=ORIENTED_EDGE('',*,*,#760,.T.);
#1128=ORIENTED_EDGE('',*,*,#834,.F.);
#1129=ORIENTED_EDGE('',*,*,#836,.F.);
#1130=ORIENTED_EDGE('',*,*,#837,.T.);
#1131=ORIENTED_EDGE('',*,*,#816,.F.);
#1132=ORIENTED_EDGE('',*,*,#838,.T.);
#1133=ORIENTED_EDGE('',*,*,#839,.T.);
#1134=ORIENTED_EDGE('',*,*,#840,.T.);
#1135=ORIENTED_EDGE('',*,*,#841,.T.);
#1136=ORIENTED_EDGE('',*,*,#842,.T.);
#1137=ORIENTED_EDGE('',*,*,#843,.T.);
#1138=ORIENTED_EDGE('',*,*,#844,.T.);
#1139=ORIENTED_EDGE('',*,*,#841,.F.);
#1140=ORIENTED_EDGE('',*,*,#839,.F.);
#1141=ORIENTED_EDGE('',*,*,#754,.T.);
#1142=ORIENTED_EDGE('',*,*,#845,.T.);
#1143=ORIENTED_EDGE('',*,*,#843,.F.);
#1144=ORIENTED_EDGE('',*,*,#846,.T.);
#1145=ORIENTED_EDGE('',*,*,#832,.F.);
#1146=ORIENTED_EDGE('',*,*,#787,.F.);
#1147=ORIENTED_EDGE('',*,*,#826,.F.);
#1148=ORIENTED_EDGE('',*,*,#789,.F.);
#1149=ORIENTED_EDGE('',*,*,#847,.T.);
#1150=ORIENTED_EDGE('',*,*,#678,.T.);
#1151=ORIENTED_EDGE('',*,*,#688,.T.);
#1152=ORIENTED_EDGE('',*,*,#685,.T.);
#1153=ORIENTED_EDGE('',*,*,#682,.T.);
#1154=ORIENTED_EDGE('',*,*,#825,.F.);
#1155=ORIENTED_EDGE('',*,*,#823,.F.);
#1156=ORIENTED_EDGE('',*,*,#821,.F.);
#1157=ORIENTED_EDGE('',*,*,#848,.T.);
#1158=ORIENTED_EDGE('',*,*,#804,.F.);
#1159=ORIENTED_EDGE('',*,*,#818,.F.);
#1160=ORIENTED_EDGE('',*,*,#817,.F.);
#1161=ORIENTED_EDGE('',*,*,#849,.F.);
#1162=ORIENTED_EDGE('',*,*,#723,.T.);
#1163=ORIENTED_EDGE('',*,*,#745,.T.);
#1164=ORIENTED_EDGE('',*,*,#742,.T.);
#1165=ORIENTED_EDGE('',*,*,#739,.T.);
#1166=ORIENTED_EDGE('',*,*,#736,.T.);
#1167=ORIENTED_EDGE('',*,*,#733,.T.);
#1168=ORIENTED_EDGE('',*,*,#730,.T.);
#1169=ORIENTED_EDGE('',*,*,#727,.T.);
#1170=ORIENTED_EDGE('',*,*,#805,.F.);
#1171=ORIENTED_EDGE('',*,*,#849,.T.);
#1172=ORIENTED_EDGE('',*,*,#837,.F.);
#1173=ORIENTED_EDGE('',*,*,#850,.T.);
#1174=ORIENTED_EDGE('',*,*,#835,.F.);
#1175=ORIENTED_EDGE('',*,*,#833,.F.);
#1176=ORIENTED_EDGE('',*,*,#851,.F.);
#1177=ORIENTED_EDGE('',*,*,#850,.F.);
#1178=ORIENTED_EDGE('',*,*,#806,.F.);
#1179=ORIENTED_EDGE('',*,*,#851,.T.);
#1180=ORIENTED_EDGE('',*,*,#846,.F.);
#1181=ORIENTED_EDGE('',*,*,#852,.T.);
#1182=ORIENTED_EDGE('',*,*,#721,.F.);
#1183=ORIENTED_EDGE('',*,*,#772,.F.);
#1184=ORIENTED_EDGE('',*,*,#780,.F.);
#1185=ORIENTED_EDGE('',*,*,#786,.F.);
#1186=ORIENTED_EDGE('',*,*,#793,.F.);
#1187=ORIENTED_EDGE('',*,*,#848,.F.);
#1188=ORIENTED_EDGE('',*,*,#808,.F.);
#1189=ORIENTED_EDGE('',*,*,#800,.F.);
#1190=ORIENTED_EDGE('',*,*,#803,.F.);
#1191=ORIENTED_EDGE('',*,*,#852,.F.);
#1192=ORIENTED_EDGE('',*,*,#842,.F.);
#1193=ORIENTED_EDGE('',*,*,#840,.F.);
#1194=ORIENTED_EDGE('',*,*,#853,.F.);
#1195=ORIENTED_EDGE('',*,*,#706,.T.);
#1196=ORIENTED_EDGE('',*,*,#694,.T.);
#1197=ORIENTED_EDGE('',*,*,#701,.T.);
#1198=ORIENTED_EDGE('',*,*,#829,.F.);
#1199=ORIENTED_EDGE('',*,*,#853,.T.);
#1200=ORIENTED_EDGE('',*,*,#845,.F.);
#1201=ORIENTED_EDGE('',*,*,#854,.T.);
#1202=ORIENTED_EDGE('',*,*,#776,.F.);
#1203=ORIENTED_EDGE('',*,*,#785,.F.);
#1204=ORIENTED_EDGE('',*,*,#827,.F.);
#1205=ORIENTED_EDGE('',*,*,#781,.F.);
#1206=ORIENTED_EDGE('',*,*,#807,.F.);
#1207=ORIENTED_EDGE('',*,*,#822,.F.);
#1208=ORIENTED_EDGE('',*,*,#820,.F.);
#1209=ORIENTED_EDGE('',*,*,#819,.F.);
#1210=ORIENTED_EDGE('',*,*,#674,.T.);
#1211=ORIENTED_EDGE('',*,*,#671,.T.);
#1212=ORIENTED_EDGE('',*,*,#668,.T.);
#1213=ORIENTED_EDGE('',*,*,#677,.T.);
#1214=ORIENTED_EDGE('',*,*,#830,.F.);
#1215=ORIENTED_EDGE('',*,*,#855,.T.);
#1216=ORIENTED_EDGE('',*,*,#828,.F.);
#1217=ORIENTED_EDGE('',*,*,#719,.T.);
#1218=ORIENTED_EDGE('',*,*,#750,.F.);
#1219=ORIENTED_EDGE('',*,*,#755,.F.);
#1220=ORIENTED_EDGE('',*,*,#838,.F.);
#1221=ORIENTED_EDGE('',*,*,#856,.F.);
#1222=ORIENTED_EDGE('',*,*,#753,.F.);
#1223=ORIENTED_EDGE('',*,*,#758,.F.);
#1224=ORIENTED_EDGE('',*,*,#855,.F.);
#1225=ORIENTED_EDGE('',*,*,#854,.F.);
#1226=ORIENTED_EDGE('',*,*,#831,.F.);
#1227=ORIENTED_EDGE('',*,*,#759,.F.);
#1228=ORIENTED_EDGE('',*,*,#747,.F.);
#1229=ORIENTED_EDGE('',*,*,#856,.T.);
#1230=ORIENTED_EDGE('',*,*,#844,.F.);
#1231=ORIENTED_EDGE('',*,*,#791,.F.);
#1232=ORIENTED_EDGE('',*,*,#847,.F.);
#1233=ORIENTED_EDGE('',*,*,#797,.F.);
#1234=ORIENTED_EDGE('',*,*,#824,.F.);
#1235=ORIENTED_EDGE('',*,*,#673,.T.);
#1236=ORIENTED_EDGE('',*,*,#676,.T.);
#1237=ORIENTED_EDGE('',*,*,#666,.T.);
#1238=ORIENTED_EDGE('',*,*,#670,.T.);
#1239=PLANE('',#1367);
#1240=PLANE('',#1368);
#1241=PLANE('',#1369);
#1242=PLANE('',#1370);
#1243=PLANE('',#1371);
#1244=PLANE('',#1372);
#1245=PLANE('',#1373);
#1246=PLANE('',#1374);
#1247=PLANE('',#1375);
#1248=PLANE('',#1376);
#1249=PLANE('',#1379);
#1250=PLANE('',#1382);
#1251=PLANE('',#1387);
#1252=PLANE('',#1388);
#1253=PLANE('',#1393);
#1254=PLANE('',#1397);
#1255=PLANE('',#1401);
#1256=PLANE('',#1405);
#1257=PLANE('',#1409);
#1258=PLANE('',#1420);
#1259=PLANE('',#1503);
#1260=PLANE('',#1504);
#1261=PLANE('',#1505);
#1262=PLANE('',#1507);
#1263=PLANE('',#1509);
#1264=PLANE('',#1511);
#1265=PLANE('',#1512);
#1266=PLANE('',#1514);
#1267=PLANE('',#1515);
#1268=PLANE('',#1516);
#1269=PLANE('',#1517);
#1270=ADVANCED_FACE('',(#140),#1239,.F.);
#1271=ADVANCED_FACE('',(#141),#1240,.F.);
#1272=ADVANCED_FACE('',(#142),#1241,.F.);
#1273=ADVANCED_FACE('',(#143),#1242,.F.);
#1274=ADVANCED_FACE('',(#144),#1243,.F.);
#1275=ADVANCED_FACE('',(#145),#1244,.F.);
#1276=ADVANCED_FACE('',(#146),#1245,.F.);
#1277=ADVANCED_FACE('',(#147),#1246,.F.);
#1278=ADVANCED_FACE('',(#148),#1247,.T.);
#1279=ADVANCED_FACE('',(#149),#1248,.T.);
#1280=ADVANCED_FACE('',(#150),#1249,.T.);
#1281=ADVANCED_FACE('',(#151,#123),#1250,.F.);
#1282=ADVANCED_FACE('',(#152),#86,.T.);
#1283=ADVANCED_FACE('',(#153),#87,.T.);
#1284=ADVANCED_FACE('',(#154),#1251,.T.);
#1285=ADVANCED_FACE('',(#155),#1252,.T.);
#1286=ADVANCED_FACE('',(#156),#88,.T.);
#1287=ADVANCED_FACE('',(#157),#89,.T.);
#1288=ADVANCED_FACE('',(#158),#1253,.F.);
#1289=ADVANCED_FACE('',(#159),#90,.F.);
#1290=ADVANCED_FACE('',(#160),#1254,.F.);
#1291=ADVANCED_FACE('',(#161),#91,.F.);
#1292=ADVANCED_FACE('',(#162),#1255,.F.);
#1293=ADVANCED_FACE('',(#163),#92,.F.);
#1294=ADVANCED_FACE('',(#164),#1256,.F.);
#1295=ADVANCED_FACE('',(#165),#93,.F.);
#1296=ADVANCED_FACE('',(#166),#1257,.T.);
#1297=ADVANCED_FACE('',(#167),#94,.T.);
#1298=ADVANCED_FACE('',(#168),#17,.T.);
#1299=ADVANCED_FACE('',(#169),#95,.T.);
#1300=ADVANCED_FACE('',(#170),#96,.T.);
#1301=ADVANCED_FACE('',(#171),#1258,.T.);
#1302=ADVANCED_FACE('',(#172),#18,.T.);
#1303=ADVANCED_FACE('',(#173),#97,.T.);
#1304=ADVANCED_FACE('',(#174),#19,.T.);
#1305=ADVANCED_FACE('',(#175),#98,.T.);
#1306=ADVANCED_FACE('',(#176),#99,.T.);
#1307=ADVANCED_FACE('',(#177),#20,.T.);
#1308=ADVANCED_FACE('',(#178),#100,.T.);
#1309=ADVANCED_FACE('',(#179),#21,.T.);
#1310=ADVANCED_FACE('',(#180),#101,.T.);
#1311=ADVANCED_FACE('',(#181),#102,.T.);
#1312=ADVANCED_FACE('',(#182),#103,.T.);
#1313=ADVANCED_FACE('',(#183),#104,.T.);
#1314=ADVANCED_FACE('',(#184),#22,.T.);
#1315=ADVANCED_FACE('',(#185),#105,.T.);
#1316=ADVANCED_FACE('',(#186),#15,.T.);
#1317=ADVANCED_FACE('',(#187),#106,.T.);
#1318=ADVANCED_FACE('',(#188),#23,.T.);
#1319=ADVANCED_FACE('',(#189),#107,.T.);
#1320=ADVANCED_FACE('',(#190),#24,.T.);
#1321=ADVANCED_FACE('',(#191),#16,.T.);
#1322=ADVANCED_FACE('',(#192),#108,.T.);
#1323=ADVANCED_FACE('',(#193),#109,.F.);
#1324=ADVANCED_FACE('',(#194),#110,.T.);
#1325=ADVANCED_FACE('',(#195),#111,.T.);
#1326=ADVANCED_FACE('',(#196),#112,.T.);
#1327=ADVANCED_FACE('',(#197),#113,.T.);
#1328=ADVANCED_FACE('',(#198),#114,.T.);
#1329=ADVANCED_FACE('',(#199),#25,.T.);
#1330=ADVANCED_FACE('',(#200),#26,.T.);
#1331=ADVANCED_FACE('',(#201),#115,.T.);
#1332=ADVANCED_FACE('',(#202),#116,.T.);
#1333=ADVANCED_FACE('',(#203),#27,.T.);
#1334=ADVANCED_FACE('',(#204),#117,.T.);
#1335=ADVANCED_FACE('',(#205),#118,.T.);
#1336=ADVANCED_FACE('',(#206),#28,.T.);
#1337=ADVANCED_FACE('',(#207),#29,.T.);
#1338=ADVANCED_FACE('',(#208,#124),#1259,.T.);
#1339=ADVANCED_FACE('',(#209),#1260,.T.);
#1340=ADVANCED_FACE('',(#210,#125),#1261,.T.);
#1341=ADVANCED_FACE('',(#211),#119,.T.);
#1342=ADVANCED_FACE('',(#212),#1262,.T.);
#1343=ADVANCED_FACE('',(#213),#120,.T.);
#1344=ADVANCED_FACE('',(#214),#1263,.T.);
#1345=ADVANCED_FACE('',(#215),#121,.T.);
#1346=ADVANCED_FACE('',(#216),#1264,.T.);
#1347=ADVANCED_FACE('',(#217,#126),#1265,.T.);
#1348=ADVANCED_FACE('',(#218),#122,.T.);
#1349=ADVANCED_FACE('',(#219),#1266,.T.);
#1350=ADVANCED_FACE('',(#220),#1267,.T.);
#1351=ADVANCED_FACE('',(#221),#1268,.F.);
#1352=ADVANCED_FACE('',(#222,#127),#1269,.T.);
#1353=CLOSED_SHELL('',(#1270,#1271,#1272,#1273,#1274,#1275,#1276,#1277,
#1278,#1279,#1280,#1281,#1282,#1283,#1284,#1285,#1286,#1287,#1288,#1289,
#1290,#1291,#1292,#1293,#1294,#1295,#1296,#1297,#1298,#1299,#1300,#1301,
#1302,#1303,#1304,#1305,#1306,#1307,#1308,#1309,#1310,#1311,#1312,#1313,
#1314,#1315,#1316,#1317,#1318,#1319,#1320,#1321,#1322,#1323,#1324,#1325,
#1326,#1327,#1328,#1329,#1330,#1331,#1332,#1333,#1334,#1335,#1336,#1337,
#1338,#1339,#1340,#1341,#1342,#1343,#1344,#1345,#1346,#1347,#1348,#1349,
#1350,#1351,#1352));
#1354=DERIVED_UNIT_ELEMENT(#1356,1.);
#1355=DERIVED_UNIT_ELEMENT(#2334,-3.);
#1356=(
MASS_UNIT()
NAMED_UNIT(*)
SI_UNIT(.KILO.,.GRAM.)
);
#1357=DERIVED_UNIT((#1354,#1355));
#1358=MEASURE_REPRESENTATION_ITEM('density measure',
POSITIVE_RATIO_MEASURE(7850.),#1357);
#1359=PROPERTY_DEFINITION_REPRESENTATION(#1364,#1361);
#1360=PROPERTY_DEFINITION_REPRESENTATION(#1365,#1362);
#1361=REPRESENTATION('material name',(#1363),#2331);
#1362=REPRESENTATION('density',(#1358),#2331);
#1363=DESCRIPTIVE_REPRESENTATION_ITEM('Steel','Steel');
#1364=PROPERTY_DEFINITION('material property','material name',#2341);
#1365=PROPERTY_DEFINITION('material property','density of part',#2341);
#1366=AXIS2_PLACEMENT_3D('',#1945,#1518,#1519);
#1367=AXIS2_PLACEMENT_3D('',#1946,#1520,#1521);
#1368=AXIS2_PLACEMENT_3D('',#1955,#1526,#1527);
#1369=AXIS2_PLACEMENT_3D('',#1961,#1531,#1532);
#1370=AXIS2_PLACEMENT_3D('',#1967,#1536,#1537);
#1371=AXIS2_PLACEMENT_3D('',#1970,#1540,#1541);
#1372=AXIS2_PLACEMENT_3D('',#1979,#1546,#1547);
#1373=AXIS2_PLACEMENT_3D('',#1985,#1551,#1552);
#1374=AXIS2_PLACEMENT_3D('',#1991,#1556,#1557);
#1375=AXIS2_PLACEMENT_3D('',#1994,#1560,#1561);
#1376=AXIS2_PLACEMENT_3D('',#2011,#1570,#1571);
#1377=AXIS2_PLACEMENT_3D('',#2014,#1572,#1573);
#1378=AXIS2_PLACEMENT_3D('',#2018,#1575,#1576);
#1379=AXIS2_PLACEMENT_3D('',#2022,#1580,#1581);
#1380=AXIS2_PLACEMENT_3D('',#2025,#1582,#1583);
#1381=AXIS2_PLACEMENT_3D('',#2030,#1586,#1587);
#1382=AXIS2_PLACEMENT_3D('',#2032,#1589,#1590);
#1383=AXIS2_PLACEMENT_3D('',#2038,#1594,#1595);
#1384=AXIS2_PLACEMENT_3D('',#2041,#1597,#1598);
#1385=AXIS2_PLACEMENT_3D('',#2043,#1600,#1601);
#1386=AXIS2_PLACEMENT_3D('',#2046,#1603,#1604);
#1387=AXIS2_PLACEMENT_3D('',#2047,#1605,#1606);
#1388=AXIS2_PLACEMENT_3D('',#2049,#1608,#1609);
#1389=AXIS2_PLACEMENT_3D('',#2053,#1612,#1613);
#1390=AXIS2_PLACEMENT_3D('',#2055,#1614,#1615);
#1391=AXIS2_PLACEMENT_3D('',#2057,#1617,#1618);
#1392=AXIS2_PLACEMENT_3D('',#2058,#1619,#1620);
#1393=AXIS2_PLACEMENT_3D('',#2059,#1621,#1622);
#1394=AXIS2_PLACEMENT_3D('',#2068,#1627,#1628);
#1395=AXIS2_PLACEMENT_3D('',#2070,#1629,#1630);
#1396=AXIS2_PLACEMENT_3D('',#2073,#1632,#1633);
#1397=AXIS2_PLACEMENT_3D('',#2074,#1634,#1635);
#1398=AXIS2_PLACEMENT_3D('',#2080,#1639,#1640);
#1399=AXIS2_PLACEMENT_3D('',#2082,#1641,#1642);
#1400=AXIS2_PLACEMENT_3D('',#2085,#1644,#1645);
#1401=AXIS2_PLACEMENT_3D('',#2086,#1646,#1647);
#1402=AXIS2_PLACEMENT_3D('',#2092,#1651,#1652);
#1403=AXIS2_PLACEMENT_3D('',#2094,#1653,#1654);
#1404=AXIS2_PLACEMENT_3D('',#2097,#1656,#1657);
#1405=AXIS2_PLACEMENT_3D('',#2098,#1658,#1659);
#1406=AXIS2_PLACEMENT_3D('',#2104,#1663,#1664);
#1407=AXIS2_PLACEMENT_3D('',#2105,#1665,#1666);
#1408=AXIS2_PLACEMENT_3D('',#2106,#1667,#1668);
#1409=AXIS2_PLACEMENT_3D('',#2107,#1669,#1670);
#1410=AXIS2_PLACEMENT_3D('',#2108,#1671,#1672);
#1411=AXIS2_PLACEMENT_3D('',#2111,#1673,#1674);
#1412=AXIS2_PLACEMENT_3D('',#2115,#1676,#1677);
#1413=AXIS2_PLACEMENT_3D('',#2117,#1679,#1680);
#1414=AXIS2_PLACEMENT_3D('',#2119,#1681,#1682);
#1415=AXIS2_PLACEMENT_3D('',#2120,#1683,#1684);
#1416=AXIS2_PLACEMENT_3D('',#2121,#1685,#1686);
#1417=AXIS2_PLACEMENT_3D('',#2125,#1688,#1689);
#1418=AXIS2_PLACEMENT_3D('',#2127,#1691,#1692);
#1419=AXIS2_PLACEMENT_3D('',#2130,#1694,#1695);
#1420=AXIS2_PLACEMENT_3D('',#2132,#1697,#1698);
#1421=AXIS2_PLACEMENT_3D('',#2140,#1702,#1703);
#1422=AXIS2_PLACEMENT_3D('',#2152,#1710,#1711);
#1423=AXIS2_PLACEMENT_3D('',#2155,#1712,#1713);
#1424=AXIS2_PLACEMENT_3D('',#2156,#1714,#1715);
#1425=AXIS2_PLACEMENT_3D('',#2157,#1716,#1717);
#1426=AXIS2_PLACEMENT_3D('',#2158,#1718,#1719);
#1427=AXIS2_PLACEMENT_3D('',#2160,#1721,#1722);
#1428=AXIS2_PLACEMENT_3D('',#2162,#1723,#1724);
#1429=AXIS2_PLACEMENT_3D('',#2163,#1725,#1726);
#1430=AXIS2_PLACEMENT_3D('',#2164,#1727,#1728);
#1431=AXIS2_PLACEMENT_3D('',#2165,#1729,#1730);
#1432=AXIS2_PLACEMENT_3D('',#2167,#1732,#1733);
#1433=AXIS2_PLACEMENT_3D('',#2168,#1734,#1735);
#1434=AXIS2_PLACEMENT_3D('',#2171,#1736,#1737);
#1435=AXIS2_PLACEMENT_3D('',#2173,#1738,#1739);
#1436=AXIS2_PLACEMENT_3D('',#2174,#1740,#1741);
#1437=AXIS2_PLACEMENT_3D('',#2175,#1742,#1743);
#1438=AXIS2_PLACEMENT_3D('',#2178,#1746,#1747);
#1439=AXIS2_PLACEMENT_3D('',#2181,#1748,#1749);
#1440=AXIS2_PLACEMENT_3D('',#2182,#1750,#1751);
#1441=AXIS2_PLACEMENT_3D('',#2183,#1752,#1753);
#1442=AXIS2_PLACEMENT_3D('',#2184,#1754,#1755);
#1443=AXIS2_PLACEMENT_3D('',#2186,#1757,#1758);
#1444=AXIS2_PLACEMENT_3D('',#2191,#1761,#1762);
#1445=AXIS2_PLACEMENT_3D('',#2192,#1763,#1764);
#1446=AXIS2_PLACEMENT_3D('',#2195,#1766,#1767);
#1447=AXIS2_PLACEMENT_3D('',#2196,#1768,#1769);
#1448=AXIS2_PLACEMENT_3D('',#2200,#1771,#1772);
#1449=AXIS2_PLACEMENT_3D('',#2202,#1774,#1775);
#1450=AXIS2_PLACEMENT_3D('',#2205,#1776,#1777);
#1451=AXIS2_PLACEMENT_3D('',#2206,#1778,#1779);
#1452=AXIS2_PLACEMENT_3D('',#2207,#1780,#1781);
#1453=AXIS2_PLACEMENT_3D('',#2208,#1782,#1783);
#1454=AXIS2_PLACEMENT_3D('',#2210,#1785,#1786);
#1455=AXIS2_PLACEMENT_3D('',#2213,#1787,#1788);
#1456=AXIS2_PLACEMENT_3D('',#2215,#1789,#1790);
#1457=AXIS2_PLACEMENT_3D('',#2217,#1791,#1792);
#1458=AXIS2_PLACEMENT_3D('',#2218,#1793,#1794);
#1459=AXIS2_PLACEMENT_3D('',#2219,#1795,#1796);
#1460=AXIS2_PLACEMENT_3D('',#2222,#1797,#1798);
#1461=AXIS2_PLACEMENT_3D('',#2225,#1801,#1802);
#1462=AXIS2_PLACEMENT_3D('',#2227,#1803,#1804);
#1463=AXIS2_PLACEMENT_3D('',#2228,#1805,#1806);
#1464=AXIS2_PLACEMENT_3D('',#2229,#1807,#1808);
#1465=AXIS2_PLACEMENT_3D('',#2234,#1811,#1812);
#1466=AXIS2_PLACEMENT_3D('',#2235,#1813,#1814);
#1467=AXIS2_PLACEMENT_3D('',#2237,#1815,#1816);
#1468=AXIS2_PLACEMENT_3D('',#2239,#1817,#1818);
#1469=AXIS2_PLACEMENT_3D('',#2240,#1819,#1820);
#1470=AXIS2_PLACEMENT_3D('',#2241,#1821,#1822);
#1471=AXIS2_PLACEMENT_3D('',#2243,#1823,#1824);
#1472=AXIS2_PLACEMENT_3D('',#2245,#1825,#1826);
#1473=AXIS2_PLACEMENT_3D('',#2246,#1827,#1828);
#1474=AXIS2_PLACEMENT_3D('',#2247,#1829,#1830);
#1475=AXIS2_PLACEMENT_3D('',#2249,#1831,#1832);
#1476=AXIS2_PLACEMENT_3D('',#2251,#1834,#1835);
#1477=AXIS2_PLACEMENT_3D('',#2254,#1838,#1839);
#1478=AXIS2_PLACEMENT_3D('',#2256,#1841,#1842);
#1479=AXIS2_PLACEMENT_3D('',#2259,#1845,#1846);
#1480=AXIS2_PLACEMENT_3D('',#2261,#1848,#1849);
#1481=AXIS2_PLACEMENT_3D('',#2264,#1852,#1853);
#1482=AXIS2_PLACEMENT_3D('',#2267,#1856,#1857);
#1483=AXIS2_PLACEMENT_3D('',#2268,#1858,#1859);
#1484=AXIS2_PLACEMENT_3D('',#2269,#1860,#1861);
#1485=AXIS2_PLACEMENT_3D('',#2271,#1862,#1863);
#1486=AXIS2_PLACEMENT_3D('',#2272,#1864,#1865);
#1487=AXIS2_PLACEMENT_3D('',#2273,#1866,#1867);
#1488=AXIS2_PLACEMENT_3D('',#2277,#1869,#1870);
#1489=AXIS2_PLACEMENT_3D('',#2280,#1872,#1873);
#1490=AXIS2_PLACEMENT_3D('',#2281,#1874,#1875);
#1491=AXIS2_PLACEMENT_3D('',#2284,#1877,#1878);
#1492=AXIS2_PLACEMENT_3D('',#2285,#1879,#1880);
#1493=AXIS2_PLACEMENT_3D('',#2286,#1881,#1882);
#1494=AXIS2_PLACEMENT_3D('',#2287,#1883,#1884);
#1495=AXIS2_PLACEMENT_3D('',#2291,#1886,#1887);
#1496=AXIS2_PLACEMENT_3D('',#2294,#1889,#1890);
#1497=AXIS2_PLACEMENT_3D('',#2295,#1891,#1892);
#1498=AXIS2_PLACEMENT_3D('',#2298,#1894,#1895);
#1499=AXIS2_PLACEMENT_3D('',#2300,#1897,#1898);
#1500=AXIS2_PLACEMENT_3D('',#2301,#1899,#1900);
#1501=AXIS2_PLACEMENT_3D('',#2302,#1901,#1902);
#1502=AXIS2_PLACEMENT_3D('',#2303,#1903,#1904);
#1503=AXIS2_PLACEMENT_3D('',#2304,#1905,#1906);
#1504=AXIS2_PLACEMENT_3D('',#2306,#1908,#1909);
#1505=AXIS2_PLACEMENT_3D('',#2308,#1911,#1912);
#1506=AXIS2_PLACEMENT_3D('',#2310,#1914,#1915);
#1507=AXIS2_PLACEMENT_3D('',#2312,#1917,#1918);
#1508=AXIS2_PLACEMENT_3D('',#2314,#1920,#1921);
#1509=AXIS2_PLACEMENT_3D('',#2316,#1923,#1924);
#1510=AXIS2_PLACEMENT_3D('',#2318,#1926,#1927);
#1511=AXIS2_PLACEMENT_3D('',#2320,#1929,#1930);
#1512=AXIS2_PLACEMENT_3D('',#2321,#1931,#1932);
#1513=AXIS2_PLACEMENT_3D('',#2322,#1933,#1934);
#1514=AXIS2_PLACEMENT_3D('',#2324,#1936,#1937);
#1515=AXIS2_PLACEMENT_3D('',#2326,#1939,#1940);
#1516=AXIS2_PLACEMENT_3D('',#2327,#1941,#1942);
#1517=AXIS2_PLACEMENT_3D('',#2328,#1943,#1944);
#1518=DIRECTION('axis',(0.,0.,1.));
#1519=DIRECTION('refdir',(1.,0.,0.));
#1520=DIRECTION('center_axis',(-1.,0.,0.));
#1521=DIRECTION('ref_axis',(0.,0.,-1.));
#1522=DIRECTION('',(0.,0.,1.));
#1523=DIRECTION('',(0.,-1.,0.));
#1524=DIRECTION('',(0.,0.,-1.));
#1525=DIRECTION('',(0.,-1.,0.));
#1526=DIRECTION('center_axis',(0.,0.,1.));
#1527=DIRECTION('ref_axis',(-1.,0.,0.));
#1528=DIRECTION('',(1.,0.,0.));
#1529=DIRECTION('',(-1.,0.,0.));
#1530=DIRECTION('',(0.,-1.,0.));
#1531=DIRECTION('center_axis',(1.,0.,0.));
#1532=DIRECTION('ref_axis',(0.,0.,1.));
#1533=DIRECTION('',(0.,0.,-1.));
#1534=DIRECTION('',(0.,0.,1.));
#1535=DIRECTION('',(0.,-1.,0.));
#1536=DIRECTION('center_axis',(0.,0.,-1.));
#1537=DIRECTION('ref_axis',(1.,0.,0.));
#1538=DIRECTION('',(-1.,0.,0.));
#1539=DIRECTION('',(1.,0.,0.));
#1540=DIRECTION('center_axis',(1.,0.,0.));
#1541=DIRECTION('ref_axis',(0.,-1.,0.));
#1542=DIRECTION('',(0.,-1.,0.));
#1543=DIRECTION('',(0.,0.,-1.));
#1544=DIRECTION('',(0.,1.,0.));
#1545=DIRECTION('',(0.,0.,-1.));
#1546=DIRECTION('center_axis',(0.,1.,0.));
#1547=DIRECTION('ref_axis',(1.,0.,0.));
#1548=DIRECTION('',(1.,0.,0.));
#1549=DIRECTION('',(0.,0.,-1.));
#1550=DIRECTION('',(-1.,0.,0.));
#1551=DIRECTION('center_axis',(-1.,0.,0.));
#1552=DIRECTION('ref_axis',(0.,1.,0.));
#1553=DIRECTION('',(0.,1.,0.));
#1554=DIRECTION('',(0.,0.,-1.));
#1555=DIRECTION('',(0.,-1.,0.));
#1556=DIRECTION('center_axis',(0.,-1.,0.));
#1557=DIRECTION('ref_axis',(-1.,0.,0.));
#1558=DIRECTION('',(-1.,0.,0.));
#1559=DIRECTION('',(1.,0.,0.));
#1560=DIRECTION('center_axis',(0.,-1.89291092438999E-16,1.));
#1561=DIRECTION('ref_axis',(0.,-1.,-1.89291092438999E-16));
#1562=DIRECTION('',(0.,1.,0.));
#1563=DIRECTION('',(1.,0.,0.));
#1564=DIRECTION('',(0.,-1.,0.));
#1565=DIRECTION('',(1.,0.,0.));
#1566=DIRECTION('',(0.,1.,1.89291092438999E-16));
#1567=DIRECTION('',(1.,0.,0.));
#1568=DIRECTION('',(0.,-1.,-1.89291092438999E-16));
#1569=DIRECTION('',(1.,0.,0.));
#1570=DIRECTION('center_axis',(0.,0.75493376326425,0.655801046876015));
#1571=DIRECTION('ref_axis',(0.,-0.655801046876015,0.75493376326425));
#1572=DIRECTION('center_axis',(0.,0.75493376326425,0.655801046876015));
#1573=DIRECTION('ref_axis',(-4.55053388634396E-17,-0.655801046876015,0.75493376326425));
#1574=DIRECTION('',(1.,0.,0.));
#1575=DIRECTION('center_axis',(0.,0.75493376326425,0.655801046876015));
#1576=DIRECTION('ref_axis',(4.55053388634396E-17,-0.655801046876015,0.75493376326425));
#1577=DIRECTION('',(0.,0.655801046876015,-0.75493376326425));
#1578=DIRECTION('',(-1.,0.,0.));
#1579=DIRECTION('',(0.,-0.655801046876015,0.75493376326425));
#1580=DIRECTION('center_axis',(0.,-0.75493376326425,-0.655801046876015));
#1581=DIRECTION('ref_axis',(0.,0.655801046876015,-0.75493376326425));
#1582=DIRECTION('center_axis',(0.,-0.75493376326425,-0.655801046876015));
#1583=DIRECTION('ref_axis',(-4.55053388634396E-17,-0.655801046876015,0.75493376326425));
#1584=DIRECTION('',(0.,0.655801046876015,-0.75493376326425));
#1585=DIRECTION('',(0.,-0.655801046876015,0.75493376326425));
#1586=DIRECTION('center_axis',(0.,-0.75493376326425,-0.655801046876015));
#1587=DIRECTION('ref_axis',(1.36516016590319E-16,-0.655801046876015,0.75493376326425));
#1588=DIRECTION('',(-1.,0.,0.));
#1589=DIRECTION('center_axis',(0.,0.,1.));
#1590=DIRECTION('ref_axis',(1.,0.,0.));
#1591=DIRECTION('',(0.,-1.,0.));
#1592=DIRECTION('',(1.,0.,0.));
#1593=DIRECTION('',(0.,1.,0.));
#1594=DIRECTION('center_axis',(0.,0.,-1.));
#1595=DIRECTION('ref_axis',(0.707106781186554,-0.707106781186541,0.));
#1596=DIRECTION('',(0.,0.,1.));
#1597=DIRECTION('center_axis',(0.,0.707106781186549,-0.707106781186546));
#1598=DIRECTION('ref_axis',(0.,0.707106781186546,0.707106781186549));
#1599=DIRECTION('',(0.,0.,-1.));
#1600=DIRECTION('center_axis',(0.,0.,-1.));
#1601=DIRECTION('ref_axis',(0.707106781186554,-0.707106781186541,0.));
#1602=DIRECTION('',(0.,0.,-1.));
#1603=DIRECTION('center_axis',(0.,0.,1.));
#1604=DIRECTION('ref_axis',(0.,-1.,0.));
#1605=DIRECTION('center_axis',(0.,-1.,0.));
#1606=DIRECTION('ref_axis',(0.,0.,-1.));
#1607=DIRECTION('',(0.,0.,1.));
#1608=DIRECTION('center_axis',(0.,-1.,0.));
#1609=DIRECTION('ref_axis',(0.,0.,-1.));
#1610=DIRECTION('',(0.,0.,1.));
#1611=DIRECTION('',(-1.,0.,0.));
#1612=DIRECTION('center_axis',(0.,0.,1.));
#1613=DIRECTION('ref_axis',(-0.707106781186555,-0.70710678118654,0.));
#1614=DIRECTION('center_axis',(0.,-0.707106781186549,0.707106781186546));
#1615=DIRECTION('ref_axis',(0.,0.707106781186546,0.707106781186549));
#1616=DIRECTION('',(0.,0.,-1.));
#1617=DIRECTION('center_axis',(0.,0.,1.));
#1618=DIRECTION('ref_axis',(-0.707106781186555,-0.70710678118654,0.));
#1619=DIRECTION('center_axis',(0.,0.,-1.));
#1620=DIRECTION('ref_axis',(0.,-1.,0.));
#1621=DIRECTION('center_axis',(-1.,0.,0.));
#1622=DIRECTION('ref_axis',(0.,1.,0.));
#1623=DIRECTION('',(0.,1.,0.));
#1624=DIRECTION('',(0.,0.,-1.));
#1625=DIRECTION('',(0.,1.,0.));
#1626=DIRECTION('',(0.,0.,-1.));
#1627=DIRECTION('center_axis',(0.,0.,-1.));
#1628=DIRECTION('ref_axis',(-1.,0.,0.));
#1629=DIRECTION('center_axis',(0.,0.,-1.));
#1630=DIRECTION('ref_axis',(-1.,0.,0.));
#1631=DIRECTION('',(0.,0.,-1.));
#1632=DIRECTION('center_axis',(0.,0.,-1.));
#1633=DIRECTION('ref_axis',(-1.,0.,0.));
#1634=DIRECTION('center_axis',(0.,-1.,0.));
#1635=DIRECTION('ref_axis',(-1.,0.,0.));
#1636=DIRECTION('',(-1.,0.,0.));
#1637=DIRECTION('',(0.,0.,-1.));
#1638=DIRECTION('',(-1.,0.,0.));
#1639=DIRECTION('center_axis',(0.,0.,-1.));
#1640=DIRECTION('ref_axis',(0.,-1.,0.));
#1641=DIRECTION('center_axis',(0.,0.,-1.));
#1642=DIRECTION('ref_axis',(0.,-1.,0.));
#1643=DIRECTION('',(0.,0.,-1.));
#1644=DIRECTION('center_axis',(0.,0.,-1.));
#1645=DIRECTION('ref_axis',(0.,-1.,0.));
#1646=DIRECTION('center_axis',(1.,-1.64097629505797E-15,0.));
#1647=DIRECTION('ref_axis',(-1.64097629505797E-15,-1.,0.));
#1648=DIRECTION('',(-1.64097629505797E-15,-1.,0.));
#1649=DIRECTION('',(0.,0.,-1.));
#1650=DIRECTION('',(-1.64097629505797E-15,-1.,0.));
#1651=DIRECTION('center_axis',(0.,0.,-1.));
#1652=DIRECTION('ref_axis',(1.,3.55271367880049E-15,0.));
#1653=DIRECTION('center_axis',(0.,0.,-1.));
#1654=DIRECTION('ref_axis',(1.,3.55271367880049E-15,0.));
#1655=DIRECTION('',(0.,0.,-1.));
#1656=DIRECTION('center_axis',(0.,0.,-1.));
#1657=DIRECTION('ref_axis',(1.,3.55271367880049E-15,0.));
#1658=DIRECTION('center_axis',(0.,1.,0.));
#1659=DIRECTION('ref_axis',(1.,0.,0.));
#1660=DIRECTION('',(1.,0.,0.));
#1661=DIRECTION('',(0.,0.,-1.));
#1662=DIRECTION('',(1.,0.,0.));
#1663=DIRECTION('center_axis',(0.,0.,-1.));
#1664=DIRECTION('ref_axis',(-1.77635683940025E-15,1.,0.));
#1665=DIRECTION('center_axis',(0.,0.,-1.));
#1666=DIRECTION('ref_axis',(-1.77635683940025E-15,1.,0.));
#1667=DIRECTION('center_axis',(0.,0.,-1.));
#1668=DIRECTION('ref_axis',(-1.77635683940025E-15,1.,0.));
#1669=DIRECTION('center_axis',(0.,0.,1.));
#1670=DIRECTION('ref_axis',(1.,0.,0.));
#1671=DIRECTION('center_axis',(0.,0.,1.));
#1672=DIRECTION('ref_axis',(0.707106781186554,0.707106781186541,0.));
#1673=DIRECTION('center_axis',(0.,0.,1.));
#1674=DIRECTION('ref_axis',(0.707106781186554,0.707106781186541,0.));
#1675=DIRECTION('',(0.,0.,-1.));
#1676=DIRECTION('center_axis',(0.,-1.77635683940026E-14,1.));
#1677=DIRECTION('ref_axis',(1.,0.,0.));
#1678=DIRECTION('',(0.,0.,1.));
#1679=DIRECTION('center_axis',(0.408248290463846,-0.816496580927736,-0.408248290463861));
#1680=DIRECTION('ref_axis',(0.577350269189621,0.577350269189621,-0.577350269189635));
#1681=DIRECTION('center_axis',(0.,1.,0.));
#1682=DIRECTION('ref_axis',(0.707106781186552,0.,-0.707106781186543));
#1683=DIRECTION('center_axis',(1.,0.,0.));
#1684=DIRECTION('ref_axis',(0.,0.70710678118653,-0.707106781186565));
#1685=DIRECTION('center_axis',(1.,0.,0.));
#1686=DIRECTION('ref_axis',(0.,0.707106781186535,-0.70710678118656));
#1687=DIRECTION('',(-1.,0.,0.));
#1688=DIRECTION('center_axis',(-1.,0.,0.));
#1689=DIRECTION('ref_axis',(0.,0.70710678118653,-0.707106781186565));
#1690=DIRECTION('',(1.,0.,0.));
#1691=DIRECTION('center_axis',(0.,1.,0.));
#1692=DIRECTION('ref_axis',(0.707106781186554,0.,-0.707106781186541));
#1693=DIRECTION('',(0.,-1.,0.));
#1694=DIRECTION('center_axis',(0.,-1.,0.));
#1695=DIRECTION('ref_axis',(0.707106781186552,0.,-0.707106781186543));
#1696=DIRECTION('',(0.,1.,0.));
#1697=DIRECTION('center_axis',(1.,0.,0.));
#1698=DIRECTION('ref_axis',(0.,1.,0.));
#1699=DIRECTION('',(0.,1.,0.));
#1700=DIRECTION('',(0.,0.,-1.));
#1701=DIRECTION('',(0.,1.,0.));
#1702=DIRECTION('center_axis',(1.,0.,0.));
#1703=DIRECTION('ref_axis',(0.,-0.707106781186546,-0.707106781186549));
#1704=DIRECTION('',(0.,0.,-1.));
#1705=DIRECTION('',(0.,1.,0.));
#1706=DIRECTION('',(0.,0.,1.));
#1707=DIRECTION('',(0.,1.,0.));
#1708=DIRECTION('',(0.,0.,1.));
#1709=DIRECTION('',(0.,-1.,0.));
#1710=DIRECTION('center_axis',(0.408248290463864,0.408248290463862,-0.816496580927726));
#1711=DIRECTION('ref_axis',(-0.577350269189627,-0.577350269189624,-0.577350269189626));
#1712=DIRECTION('center_axis',(0.,0.,-1.));
#1713=DIRECTION('ref_axis',(-1.,0.,0.));
#1714=DIRECTION('center_axis',(0.,-1.,0.));
#1715=DIRECTION('ref_axis',(0.,0.,-1.));
#1716=DIRECTION('center_axis',(-1.,0.,0.));
#1717=DIRECTION('ref_axis',(0.,-1.,0.));
#1718=DIRECTION('center_axis',(0.,-1.,0.));
#1719=DIRECTION('ref_axis',(-0.707106781186548,0.,-0.707106781186547));
#1720=DIRECTION('',(0.,1.,0.));
#1721=DIRECTION('center_axis',(-0.40824829046386,-0.816496580927728,0.408248290463862));
#1722=DIRECTION('ref_axis',(0.577350269189624,-0.577350269189625,-0.577350269189629));
#1723=DIRECTION('center_axis',(0.,0.,-1.));
#1724=DIRECTION('ref_axis',(0.,-1.,0.));
#1725=DIRECTION('center_axis',(1.,0.,0.));
#1726=DIRECTION('ref_axis',(0.,0.,-1.));
#1727=DIRECTION('center_axis',(0.,-1.,0.));
#1728=DIRECTION('ref_axis',(1.,0.,0.));
#1729=DIRECTION('center_axis',(1.,0.,0.));
#1730=DIRECTION('ref_axis',(0.,-0.707106781186546,-0.707106781186549));
#1731=DIRECTION('',(-1.,0.,0.));
#1732=DIRECTION('center_axis',(0.,1.,0.));
#1733=DIRECTION('ref_axis',(0.707106781186546,0.,-0.707106781186549));
#1734=DIRECTION('center_axis',(0.408248290463861,-0.816496580927727,-0.408248290463863));
#1735=DIRECTION('ref_axis',(-0.577350269189626,-0.577350269189625,0.577350269189627));
#1736=DIRECTION('center_axis',(0.,-1.,0.));
#1737=DIRECTION('ref_axis',(-1.,0.,0.));
#1738=DIRECTION('center_axis',(0.,0.,1.));
#1739=DIRECTION('ref_axis',(0.,-1.,0.));
#1740=DIRECTION('center_axis',(-1.,0.,0.));
#1741=DIRECTION('ref_axis',(0.,0.,1.));
#1742=DIRECTION('center_axis',(0.,0.,1.));
#1743=DIRECTION('ref_axis',(-0.707106781186549,-0.707106781186546,0.));
#1744=DIRECTION('',(0.,0.,-1.));
#1745=DIRECTION('',(0.,0.,1.));
#1746=DIRECTION('center_axis',(-0.816496580927726,-0.408248290463864,0.408248290463861));
#1747=DIRECTION('ref_axis',(0.577350269189624,-0.577350269189629,0.577350269189624));
#1748=DIRECTION('center_axis',(1.,0.,0.));
#1749=DIRECTION('ref_axis',(0.,-1.,0.));
#1750=DIRECTION('center_axis',(0.,0.,1.));
#1751=DIRECTION('ref_axis',(1.,0.,0.));
#1752=DIRECTION('center_axis',(0.,-1.,0.));
#1753=DIRECTION('ref_axis',(0.,0.,1.));
#1754=DIRECTION('center_axis',(0.,0.,1.));
#1755=DIRECTION('ref_axis',(0.707106781186546,-0.707106781186549,0.));
#1756=DIRECTION('',(0.,0.,-1.));
#1757=DIRECTION('center_axis',(0.,-1.,0.));
#1758=DIRECTION('ref_axis',(-0.707106781186548,0.,0.707106781186548));
#1759=DIRECTION('',(0.,-1.,0.));
#1760=DIRECTION('',(0.,1.,0.));
#1761=DIRECTION('center_axis',(0.,-0.707106781186549,-0.707106781186546));
#1762=DIRECTION('ref_axis',(0.,0.707106781186546,-0.707106781186549));
#1763=DIRECTION('center_axis',(0.,1.,0.));
#1764=DIRECTION('ref_axis',(0.707106781186546,0.,0.707106781186549));
#1765=DIRECTION('',(0.,-1.,0.));
#1766=DIRECTION('center_axis',(0.,-0.707106781186549,-0.707106781186546));
#1767=DIRECTION('ref_axis',(0.,-0.707106781186546,0.707106781186549));
#1768=DIRECTION('center_axis',(0.,0.,1.));
#1769=DIRECTION('ref_axis',(-0.707106781186549,-0.707106781186546,0.));
#1770=DIRECTION('',(0.,0.,1.));
#1771=DIRECTION('center_axis',(-0.707106781186549,-5.88784672006419E-16,
-0.707106781186546));
#1772=DIRECTION('ref_axis',(0.707106781186546,5.88784672006416E-16,-0.707106781186549));
#1773=DIRECTION('',(0.,0.,-1.));
#1774=DIRECTION('center_axis',(-0.40824829046386,-0.816496580927727,-0.408248290463864));
#1775=DIRECTION('ref_axis',(0.577350269189625,-0.577350269189625,0.577350269189628));
#1776=DIRECTION('center_axis',(1.,0.,0.));
#1777=DIRECTION('ref_axis',(0.,-1.,0.));
#1778=DIRECTION('center_axis',(0.,-4.44089209850064E-15,1.));
#1779=DIRECTION('ref_axis',(1.,0.,0.));
#1780=DIRECTION('center_axis',(0.,-1.,0.));
#1781=DIRECTION('ref_axis',(0.,0.,1.));
#1782=DIRECTION('center_axis',(0.,0.,1.));
#1783=DIRECTION('ref_axis',(0.707106781186548,-0.707106781186548,0.));
#1784=DIRECTION('',(0.,0.,-1.));
#1785=DIRECTION('center_axis',(1.,0.,0.));
#1786=DIRECTION('ref_axis',(0.,0.,-1.));
#1787=DIRECTION('center_axis',(1.,0.,0.));
#1788=DIRECTION('ref_axis',(0.,0.,-1.));
#1789=DIRECTION('center_axis',(0.,1.,0.));
#1790=DIRECTION('ref_axis',(-1.,0.,0.));
#1791=DIRECTION('center_axis',(-1.,0.,0.));
#1792=DIRECTION('ref_axis',(0.,-0.707106781186546,-0.707106781186549));
#1793=DIRECTION('center_axis',(0.,0.,1.));
#1794=DIRECTION('ref_axis',(0.,1.,0.));
#1795=DIRECTION('center_axis',(0.,-1.,0.));
#1796=DIRECTION('ref_axis',(-0.707106781186548,0.,0.707106781186548));
#1797=DIRECTION('center_axis',(0.,-1.,0.));
#1798=DIRECTION('ref_axis',(-4.44089209850062E-15,0.,1.));
#1799=DIRECTION('',(0.,-1.,0.));
#1800=DIRECTION('',(0.,1.,0.));
#1801=DIRECTION('center_axis',(-0.81649658092773,-0.40824829046386,-0.408248290463858));
#1802=DIRECTION('ref_axis',(-0.577350269189625,0.577350269189625,0.577350269189627));
#1803=DIRECTION('center_axis',(-1.,0.,0.));
#1804=DIRECTION('ref_axis',(0.,0.70710678118655,0.707106781186545));
#1805=DIRECTION('center_axis',(0.,0.,1.));
#1806=DIRECTION('ref_axis',(-0.707106781186546,0.707106781186549,0.));
#1807=DIRECTION('center_axis',(0.,0.,1.));
#1808=DIRECTION('ref_axis',(-0.707106781186549,0.707106781186546,0.));
#1809=DIRECTION('',(0.,0.,-1.));
#1810=DIRECTION('',(0.,0.,1.));
#1811=DIRECTION('center_axis',(-0.707106781186549,-3.14018491736754E-15,
-0.707106781186546));
#1812=DIRECTION('ref_axis',(0.707106781186546,3.14018491736753E-15,-0.707106781186549));
#1813=DIRECTION('center_axis',(0.408248290463861,-0.816496580927728,0.408248290463861));
#1814=DIRECTION('ref_axis',(0.577350269189623,0.577350269189623,0.577350269189631));
#1815=DIRECTION('center_axis',(0.,1.,0.));
#1816=DIRECTION('ref_axis',(1.,0.,0.));
#1817=DIRECTION('center_axis',(-4.44089209850064E-15,0.,1.));
#1818=DIRECTION('ref_axis',(0.,1.,0.));
#1819=DIRECTION('center_axis',(1.,0.,0.));
#1820=DIRECTION('ref_axis',(0.,0.,1.));
#1821=DIRECTION('center_axis',(1.,0.,0.));
#1822=DIRECTION('ref_axis',(0.,0.,-1.));
#1823=DIRECTION('center_axis',(0.,1.,0.));
#1824=DIRECTION('ref_axis',(0.,0.,1.));
#1825=DIRECTION('center_axis',(-1.,0.,0.));
#1826=DIRECTION('ref_axis',(0.,-1.,0.));
#1827=DIRECTION('center_axis',(0.,0.,1.));
#1828=DIRECTION('ref_axis',(1.,0.,0.));
#1829=DIRECTION('center_axis',(0.,1.,0.));
#1830=DIRECTION('ref_axis',(0.707106781186546,0.,0.707106781186549));
#1831=DIRECTION('center_axis',(0.,-1.,0.));
#1832=DIRECTION('ref_axis',(1.,0.,0.));
#1833=DIRECTION('',(0.,-1.,0.));
#1834=DIRECTION('center_axis',(1.,0.,0.));
#1835=DIRECTION('ref_axis',(0.,-0.707106781186546,-0.707106781186549));
#1836=DIRECTION('',(-1.,0.,0.));
#1837=DIRECTION('',(1.,0.,0.));
#1838=DIRECTION('center_axis',(0.,0.,1.));
#1839=DIRECTION('ref_axis',(0.707106781186548,0.707106781186548,0.));
#1840=DIRECTION('',(0.,0.,1.));
#1841=DIRECTION('center_axis',(-1.,0.,0.));
#1842=DIRECTION('ref_axis',(0.,0.707106781186544,0.707106781186551));
#1843=DIRECTION('',(1.,0.,0.));
#1844=DIRECTION('',(-1.,0.,0.));
#1845=DIRECTION('center_axis',(0.,1.,0.));
#1846=DIRECTION('ref_axis',(0.707106781186544,0.,0.707106781186551));
#1847=DIRECTION('',(0.,-1.,0.));
#1848=DIRECTION('center_axis',(1.,0.,0.));
#1849=DIRECTION('ref_axis',(0.,-0.707106781186544,0.707106781186551));
#1850=DIRECTION('',(1.,0.,0.));
#1851=DIRECTION('',(-1.,0.,0.));
#1852=DIRECTION('center_axis',(1.,0.,0.));
#1853=DIRECTION('ref_axis',(0.,-0.707106781186546,0.707106781186549));
#1854=DIRECTION('',(-1.,0.,0.));
#1855=DIRECTION('',(1.,0.,0.));
#1856=DIRECTION('center_axis',(-0.816496580927736,-0.408248290463861,-0.408248290463846));
#1857=DIRECTION('ref_axis',(0.577350269189621,-0.577350269189635,-0.577350269189621));
#1858=DIRECTION('center_axis',(1.,0.,0.));
#1859=DIRECTION('ref_axis',(0.,-0.707106781186565,-0.70710678118653));
#1860=DIRECTION('center_axis',(-0.816496580927729,0.40824829046386,0.40824829046386));
#1861=DIRECTION('ref_axis',(-0.577350269189622,-0.577350269189635,-0.577350269189621));
#1862=DIRECTION('center_axis',(0.,-1.,0.));
#1863=DIRECTION('ref_axis',(-0.707106781186552,0.,-0.707106781186543));
#1864=DIRECTION('center_axis',(-1.,0.,0.));
#1865=DIRECTION('ref_axis',(0.,-0.707106781186565,-0.70710678118653));
#1866=DIRECTION('center_axis',(-1.,0.,0.));
#1867=DIRECTION('ref_axis',(0.,0.707106781186553,-0.707106781186543));
#1868=DIRECTION('',(-1.,0.,0.));
#1869=DIRECTION('center_axis',(1.,-4.44089209850056E-15,0.));
#1870=DIRECTION('ref_axis',(0.,0.,-1.));
#1871=DIRECTION('',(1.,0.,0.));
#1872=DIRECTION('center_axis',(-0.707106781186549,0.,-0.707106781186546));
#1873=DIRECTION('ref_axis',(0.707106781186546,0.,-0.707106781186549));
#1874=DIRECTION('center_axis',(0.,0.,1.));
#1875=DIRECTION('ref_axis',(0.707106781186541,0.707106781186554,0.));
#1876=DIRECTION('',(0.,0.,1.));
#1877=DIRECTION('center_axis',(0.,0.,-1.));
#1878=DIRECTION('ref_axis',(0.,1.,0.));
#1879=DIRECTION('center_axis',(-0.816496580927731,0.408248290463859,0.408248290463857));
#1880=DIRECTION('ref_axis',(0.577350269189625,0.577350269189625,0.577350269189627));
#1881=DIRECTION('center_axis',(1.,0.,0.));
#1882=DIRECTION('ref_axis',(0.,0.70710678118655,0.707106781186545));
#1883=DIRECTION('center_axis',(0.,0.,-1.));
#1884=DIRECTION('ref_axis',(-0.707106781186555,0.70710678118654,0.));
#1885=DIRECTION('',(0.,0.,-1.));
#1886=DIRECTION('center_axis',(-1.77635683940025E-14,0.,1.));
#1887=DIRECTION('ref_axis',(0.,1.,0.));
#1888=DIRECTION('',(0.,0.,1.));
#1889=DIRECTION('center_axis',(-2.55140024536113E-15,-0.707106781186548,
-0.707106781186548));
#1890=DIRECTION('ref_axis',(-2.55140024536113E-15,-0.707106781186547,0.707106781186547));
#1891=DIRECTION('center_axis',(0.,-1.,0.));
#1892=DIRECTION('ref_axis',(-0.707106781186548,0.,-0.707106781186547));
#1893=DIRECTION('',(0.,1.,0.));
#1894=DIRECTION('center_axis',(0.,-1.,0.));
#1895=DIRECTION('ref_axis',(-1.,0.,0.));
#1896=DIRECTION('',(0.,-1.,0.));
#1897=DIRECTION('center_axis',(-0.408248290463851,-0.816496580927734,-0.40824829046386));
#1898=DIRECTION('ref_axis',(-0.57735026918962,0.577350269189622,-0.577350269189636));
#1899=DIRECTION('center_axis',(0.,1.,0.));
#1900=DIRECTION('ref_axis',(-0.707106781186552,0.,-0.707106781186543));
#1901=DIRECTION('center_axis',(-0.816496580927728,-0.408248290463861,0.408248290463861));
#1902=DIRECTION('ref_axis',(-0.577350269189628,0.577350269189625,-0.577350269189625));
#1903=DIRECTION('center_axis',(0.,0.,-1.));
#1904=DIRECTION('ref_axis',(-0.707106781186546,0.707106781186549,0.));
#1905=DIRECTION('center_axis',(0.,0.,1.));
#1906=DIRECTION('ref_axis',(1.,0.,0.));
#1907=DIRECTION('',(-1.,0.,0.));
#1908=DIRECTION('center_axis',(0.,0.,1.));
#1909=DIRECTION('ref_axis',(1.,0.,0.));
#1910=DIRECTION('',(0.,-1.,0.));
#1911=DIRECTION('center_axis',(0.,0.,1.));
#1912=DIRECTION('ref_axis',(1.,0.,0.));
#1913=DIRECTION('',(1.,0.,0.));
#1914=DIRECTION('center_axis',(-1.,0.,0.));
#1915=DIRECTION('ref_axis',(0.,0.707106781186552,0.707106781186543));
#1916=DIRECTION('',(-1.,0.,0.));
#1917=DIRECTION('center_axis',(0.,1.,0.));
#1918=DIRECTION('ref_axis',(-1.,0.,0.));
#1919=DIRECTION('',(0.,0.,-1.));
#1920=DIRECTION('center_axis',(0.,0.,1.));
#1921=DIRECTION('ref_axis',(-0.707106781186543,0.707106781186552,0.));
#1922=DIRECTION('',(0.,0.,1.));
#1923=DIRECTION('center_axis',(-1.,0.,0.));
#1924=DIRECTION('ref_axis',(0.,-1.,0.));
#1925=DIRECTION('',(0.,1.,0.));
#1926=DIRECTION('center_axis',(0.,-1.,0.));
#1927=DIRECTION('ref_axis',(-0.707106781186555,0.,-0.70710678118654));
#1928=DIRECTION('',(0.,-1.,0.));
#1929=DIRECTION('center_axis',(0.,-1.,0.));
#1930=DIRECTION('ref_axis',(1.,0.,0.));
#1931=DIRECTION('center_axis',(0.,1.,0.));
#1932=DIRECTION('ref_axis',(-1.,0.,0.));
#1933=DIRECTION('center_axis',(1.,0.,0.));
#1934=DIRECTION('ref_axis',(0.,-0.70710678118656,-0.707106781186535));
#1935=DIRECTION('',(1.,0.,0.));
#1936=DIRECTION('center_axis',(0.,1.,0.));
#1937=DIRECTION('ref_axis',(0.,0.,1.));
#1938=DIRECTION('',(-1.,0.,0.));
#1939=DIRECTION('center_axis',(0.,0.,-1.));
#1940=DIRECTION('ref_axis',(0.,1.,0.));
#1941=DIRECTION('center_axis',(0.,0.,1.));
#1942=DIRECTION('ref_axis',(1.,0.,0.));
#1943=DIRECTION('center_axis',(0.,-1.,0.));
#1944=DIRECTION('ref_axis',(1.,0.,0.));
#1945=CARTESIAN_POINT('',(0.,0.,0.));
#1946=CARTESIAN_POINT('Origin',(25.000000372529,50.,27.0000004023314));
#1947=CARTESIAN_POINT('',(25.000000372529,40.,21.0000003129244));
#1948=CARTESIAN_POINT('',(25.000000372529,40.,27.0000004023314));
#1949=CARTESIAN_POINT('',(25.000000372529,40.,21.0000002011657));
#1950=CARTESIAN_POINT('',(25.000000372529,50.,21.0000003129244));
#1951=CARTESIAN_POINT('',(25.000000372529,50.,21.0000003129244));
#1952=CARTESIAN_POINT('',(25.000000372529,50.,27.0000004023314));
#1953=CARTESIAN_POINT('',(25.000000372529,50.,21.0000002011657));
#1954=CARTESIAN_POINT('',(25.000000372529,50.,27.0000004023314));
#1955=CARTESIAN_POINT('Origin',(50.0000007450581,50.,27.0000004023314));
#1956=CARTESIAN_POINT('',(50.0000007450581,40.,27.0000004023314));
#1957=CARTESIAN_POINT('',(25.000000372529,40.,27.0000004023314));
#1958=CARTESIAN_POINT('',(50.0000007450581,50.,27.0000004023314));
#1959=CARTESIAN_POINT('',(62.500000372529,50.,27.0000004023314));
#1960=CARTESIAN_POINT('',(50.0000007450581,50.,27.0000004023314));
#1961=CARTESIAN_POINT('Origin',(50.0000007450581,50.,21.0000003129244));
#1962=CARTESIAN_POINT('',(50.0000007450581,40.,21.0000003129244));
#1963=CARTESIAN_POINT('',(50.0000007450581,40.,18.0000001564622));
#1964=CARTESIAN_POINT('',(50.0000007450581,50.,21.0000003129244));
#1965=CARTESIAN_POINT('',(50.0000007450581,50.,18.0000001564622));
#1966=CARTESIAN_POINT('',(50.0000007450581,50.,21.0000003129244));
#1967=CARTESIAN_POINT('Origin',(25.000000372529,50.,21.0000003129244));
#1968=CARTESIAN_POINT('',(12.5000001862645,40.,21.0000003129244));
#1969=CARTESIAN_POINT('',(50.0000001862645,50.,21.0000003129244));
#1970=CARTESIAN_POINT('Origin',(54.,35.,15.));
#1971=CARTESIAN_POINT('',(54.,35.,15.));
#1972=CARTESIAN_POINT('',(54.,10.,15.));
#1973=CARTESIAN_POINT('',(54.,67.5,15.));
#1974=CARTESIAN_POINT('',(54.,35.,0.));
#1975=CARTESIAN_POINT('',(54.,35.,15.));
#1976=CARTESIAN_POINT('',(54.,10.,0.));
#1977=CARTESIAN_POINT('',(54.,67.5,0.));
#1978=CARTESIAN_POINT('',(54.,10.,15.));
#1979=CARTESIAN_POINT('Origin',(19.,35.,15.));
#1980=CARTESIAN_POINT('',(19.,35.,15.));
#1981=CARTESIAN_POINT('',(28.25,35.,15.));
#1982=CARTESIAN_POINT('',(19.,35.,0.));
#1983=CARTESIAN_POINT('',(19.,35.,15.));
#1984=CARTESIAN_POINT('',(28.25,35.,0.));
#1985=CARTESIAN_POINT('Origin',(19.,10.,15.));
#1986=CARTESIAN_POINT('',(19.,10.,15.));
#1987=CARTESIAN_POINT('',(19.,55.,15.));
#1988=CARTESIAN_POINT('',(19.,10.,0.));
#1989=CARTESIAN_POINT('',(19.,10.,15.));
#1990=CARTESIAN_POINT('',(19.,55.,0.));
#1991=CARTESIAN_POINT('Origin',(54.,10.,15.));
#1992=CARTESIAN_POINT('',(45.75,10.,15.));
#1993=CARTESIAN_POINT('',(45.75,10.,0.));
#1994=CARTESIAN_POINT('Origin',(0.,8.68686868686868,1.6443468636115E-15));
#1995=CARTESIAN_POINT('',(74.,0.999999999999996,0.));
#1996=CARTESIAN_POINT('',(74.,8.68686868686868,1.66533453693773E-15));
#1997=CARTESIAN_POINT('',(74.,50.,0.));
#1998=CARTESIAN_POINT('',(1.,0.999999999999996,0.));
#1999=CARTESIAN_POINT('',(18.75,0.999999999999996,0.));
#2000=CARTESIAN_POINT('',(1.,8.6868686868687,1.66533453693773E-15));
#2001=CARTESIAN_POINT('',(1.,150.,0.));
#2002=CARTESIAN_POINT('',(0.,8.68686868686868,1.6443468636115E-15));
#2003=CARTESIAN_POINT('',(0.,8.68686868686868,1.6443468636115E-15));
#2004=CARTESIAN_POINT('',(0.,0.,0.));
#2005=CARTESIAN_POINT('',(0.,0.,0.));
#2006=CARTESIAN_POINT('',(75.,0.,0.));
#2007=CARTESIAN_POINT('',(0.,0.,0.));
#2008=CARTESIAN_POINT('',(75.,8.68686868686868,0.));
#2009=CARTESIAN_POINT('',(75.,0.,0.));
#2010=CARTESIAN_POINT('',(0.,8.68686868686868,1.6443468636115E-15));
#2011=CARTESIAN_POINT('Origin',(0.,86.,-89.));
#2012=CARTESIAN_POINT('',(74.,85.,-87.8488372093023));
#2013=CARTESIAN_POINT('',(75.,86.,-89.));
#2014=CARTESIAN_POINT('Origin',(74.,86.,-89.));
#2015=CARTESIAN_POINT('',(1.,85.,-87.8488372093023));
#2016=CARTESIAN_POINT('',(0.,85.,-87.8488372093023));
#2017=CARTESIAN_POINT('',(0.,86.,-89.));
#2018=CARTESIAN_POINT('Origin',(1.,86.,-89.));
#2019=CARTESIAN_POINT('',(0.,8.68686868686868,1.6443468636115E-15));
#2020=CARTESIAN_POINT('',(18.75,8.68686868686867,0.));
#2021=CARTESIAN_POINT('',(75.,8.68686868686868,1.6443468636115E-15));
#2022=CARTESIAN_POINT('Origin',(0.,0.,0.));
#2023=CARTESIAN_POINT('',(75.,86.,-99.));
#2024=CARTESIAN_POINT('',(74.,85.,-97.8488372093023));
#2025=CARTESIAN_POINT('Origin',(74.,86.,-99.));
#2026=CARTESIAN_POINT('',(75.,86.,-99.));
#2027=CARTESIAN_POINT('',(0.,86.,-99.));
#2028=CARTESIAN_POINT('',(0.,86.,-99.));
#2029=CARTESIAN_POINT('',(1.,85.,-97.8488372093023));
#2030=CARTESIAN_POINT('Origin',(1.,86.,-99.));
#2031=CARTESIAN_POINT('',(0.,85.,-97.8488372093023));
#2032=CARTESIAN_POINT('Origin',(37.5,100.,0.));
#2033=CARTESIAN_POINT('',(1.,85.,0.));
#2034=CARTESIAN_POINT('',(1.,150.,0.));
#2035=CARTESIAN_POINT('',(74.,85.,0.));
#2036=CARTESIAN_POINT('',(18.75,85.,0.));
#2037=CARTESIAN_POINT('',(74.,50.,0.));
#2038=CARTESIAN_POINT('Origin',(74.,86.,0.));
#2039=CARTESIAN_POINT('',(75.,86.,1.));
#2040=CARTESIAN_POINT('',(75.,86.,0.));
#2041=CARTESIAN_POINT('Origin',(74.,86.,1.));
#2042=CARTESIAN_POINT('',(74.,85.,0.));
#2043=CARTESIAN_POINT('Origin',(74.,86.,0.));
#2044=CARTESIAN_POINT('',(74.,85.,-99.));
#2045=CARTESIAN_POINT('',(74.,85.,0.));
#2046=CARTESIAN_POINT('Origin',(74.,86.,-99.));
#2047=CARTESIAN_POINT('Origin',(0.,85.,0.));
#2048=CARTESIAN_POINT('',(1.,85.,0.));
#2049=CARTESIAN_POINT('Origin',(0.,85.,0.));
#2050=CARTESIAN_POINT('',(1.,85.,-99.));
#2051=CARTESIAN_POINT('',(1.,85.,0.));
#2052=CARTESIAN_POINT('',(0.,85.,-99.));
#2053=CARTESIAN_POINT('Origin',(1.,86.,0.));
#2054=CARTESIAN_POINT('',(0.,86.,1.));
#2055=CARTESIAN_POINT('Origin',(1.,86.,1.));
#2056=CARTESIAN_POINT('',(0.,86.,0.));
#2057=CARTESIAN_POINT('Origin',(1.,86.,0.));
#2058=CARTESIAN_POINT('Origin',(1.,86.,-99.));
#2059=CARTESIAN_POINT('Origin',(28.85,164.35,15.));
#2060=CARTESIAN_POINT('',(28.85,164.35,15.));
#2061=CARTESIAN_POINT('',(28.85,186.,15.));
#2062=CARTESIAN_POINT('',(28.85,132.175,15.));
#2063=CARTESIAN_POINT('',(28.85,164.35,10.5));
#2064=CARTESIAN_POINT('',(28.85,164.35,15.));
#2065=CARTESIAN_POINT('',(28.85,186.,10.5));
#2066=CARTESIAN_POINT('',(28.85,186.,10.5));
#2067=CARTESIAN_POINT('',(28.85,186.,15.));
#2068=CARTESIAN_POINT('Origin',(38.85,164.35,15.));
#2069=CARTESIAN_POINT('',(38.85,154.35,15.));
#2070=CARTESIAN_POINT('Origin',(38.85,164.35,15.));
#2071=CARTESIAN_POINT('',(38.85,154.35,10.5));
#2072=CARTESIAN_POINT('',(38.85,154.35,15.));
#2073=CARTESIAN_POINT('Origin',(38.85,164.35,10.5));
#2074=CARTESIAN_POINT('Origin',(61.,154.35,15.));
#2075=CARTESIAN_POINT('',(61.,154.35,15.));
#2076=CARTESIAN_POINT('',(49.25,154.35,15.));
#2077=CARTESIAN_POINT('',(61.,154.35,10.5));
#2078=CARTESIAN_POINT('',(61.,154.35,15.));
#2079=CARTESIAN_POINT('',(38.85,154.35,10.5));
#2080=CARTESIAN_POINT('Origin',(61.,164.35,15.));
#2081=CARTESIAN_POINT('',(71.,164.35,15.));
#2082=CARTESIAN_POINT('Origin',(61.,164.35,15.));
#2083=CARTESIAN_POINT('',(71.,164.35,10.5));
#2084=CARTESIAN_POINT('',(71.,164.35,15.));
#2085=CARTESIAN_POINT('Origin',(61.,164.35,10.5));
#2086=CARTESIAN_POINT('Origin',(71.,186.,15.));
#2087=CARTESIAN_POINT('',(71.,186.,15.));
#2088=CARTESIAN_POINT('',(70.9999999999999,143.,15.));
#2089=CARTESIAN_POINT('',(71.,186.,10.5));
#2090=CARTESIAN_POINT('',(71.,186.,15.));
#2091=CARTESIAN_POINT('',(71.,164.35,10.5));
#2092=CARTESIAN_POINT('Origin',(61.,186.,15.));
#2093=CARTESIAN_POINT('',(61.,196.,15.));
#2094=CARTESIAN_POINT('Origin',(61.,186.,15.));
#2095=CARTESIAN_POINT('',(61.,196.,10.5));
#2096=CARTESIAN_POINT('',(61.,196.,15.));
#2097=CARTESIAN_POINT('Origin',(61.,186.,10.5));
#2098=CARTESIAN_POINT('Origin',(38.85,196.,15.));
#2099=CARTESIAN_POINT('',(38.85,196.,15.));
#2100=CARTESIAN_POINT('',(38.175,196.,15.));
#2101=CARTESIAN_POINT('',(38.85,196.,10.5));
#2102=CARTESIAN_POINT('',(38.85,196.,15.));
#2103=CARTESIAN_POINT('',(61.,196.,10.5));
#2104=CARTESIAN_POINT('Origin',(38.85,186.,15.));
#2105=CARTESIAN_POINT('Origin',(38.85,186.,15.));
#2106=CARTESIAN_POINT('Origin',(38.85,186.,10.5));
#2107=CARTESIAN_POINT('Origin',(49.925,175.175,10.5));
#2108=CARTESIAN_POINT('Origin',(74.,99.,-50.));
#2109=CARTESIAN_POINT('',(74.,100.,0.));
#2110=CARTESIAN_POINT('',(75.,99.,0.));
#2111=CARTESIAN_POINT('Origin',(74.,99.,0.));
#2112=CARTESIAN_POINT('',(75.,99.,-99.));
#2113=CARTESIAN_POINT('',(75.,99.,-50.));
#2114=CARTESIAN_POINT('',(74.,100.,-99.));
#2115=CARTESIAN_POINT('Origin',(74.,99.,-99.));
#2116=CARTESIAN_POINT('',(74.,100.,-50.));
#2117=CARTESIAN_POINT('Origin',(74.,99.,-99.));
#2118=CARTESIAN_POINT('',(74.,99.,-100.));
#2119=CARTESIAN_POINT('Origin',(74.,99.,-99.));
#2120=CARTESIAN_POINT('Origin',(74.,99.,-99.));
#2121=CARTESIAN_POINT('Origin',(0.,99.,-99.));
#2122=CARTESIAN_POINT('',(1.,99.,-100.));
#2123=CARTESIAN_POINT('',(0.,99.,-100.));
#2124=CARTESIAN_POINT('',(1.,100.,-99.));
#2125=CARTESIAN_POINT('Origin',(1.,99.,-99.));
#2126=CARTESIAN_POINT('',(0.,100.,-99.));
#2127=CARTESIAN_POINT('Origin',(74.,42.5,-99.));
#2128=CARTESIAN_POINT('',(75.,42.5,-99.));
#2129=CARTESIAN_POINT('',(74.,86.,-100.));
#2130=CARTESIAN_POINT('Origin',(74.,86.,-99.));
#2131=CARTESIAN_POINT('',(74.,42.5,-100.));
#2132=CARTESIAN_POINT('Origin',(75.,0.,0.));
#2133=CARTESIAN_POINT('',(75.,199.,0.));
#2134=CARTESIAN_POINT('',(75.,0.,0.));
#2135=CARTESIAN_POINT('',(75.,199.,14.));
#2136=CARTESIAN_POINT('',(75.,199.,0.));
#2137=CARTESIAN_POINT('',(75.,51.,14.));
#2138=CARTESIAN_POINT('',(75.,50.,14.));
#2139=CARTESIAN_POINT('',(75.,49.,16.));
#2140=CARTESIAN_POINT('Origin',(75.,51.,16.));
#2141=CARTESIAN_POINT('',(75.,49.,32.));
#2142=CARTESIAN_POINT('',(75.,49.,7.5));
#2143=CARTESIAN_POINT('',(75.,41.,32.));
#2144=CARTESIAN_POINT('',(75.,22.5,32.));
#2145=CARTESIAN_POINT('',(75.,41.,14.));
#2146=CARTESIAN_POINT('',(75.,41.,7.5));
#2147=CARTESIAN_POINT('',(75.,0.999999999999996,14.));
#2148=CARTESIAN_POINT('',(75.,50.,14.));
#2149=CARTESIAN_POINT('',(75.,1.,1.));
#2150=CARTESIAN_POINT('',(75.,1.,0.));
#2151=CARTESIAN_POINT('',(75.,50.,1.));
#2152=CARTESIAN_POINT('Origin',(1.,0.999999999999996,1.));
#2153=CARTESIAN_POINT('',(0.,0.999999999999996,1.));
#2154=CARTESIAN_POINT('',(1.,0.,1.));
#2155=CARTESIAN_POINT('Origin',(1.,0.999999999999996,1.));
#2156=CARTESIAN_POINT('Origin',(1.,0.999999999999996,1.));
#2157=CARTESIAN_POINT('Origin',(1.,0.999999999999996,1.));
#2158=CARTESIAN_POINT('Origin',(1.,150.,1.));
#2159=CARTESIAN_POINT('',(0.,150.,1.));
#2160=CARTESIAN_POINT('Origin',(74.,0.999999999999996,1.));
#2161=CARTESIAN_POINT('',(74.,0.,1.));
#2162=CARTESIAN_POINT('Origin',(74.,1.,1.));
#2163=CARTESIAN_POINT('Origin',(74.,0.999999999999996,1.));
#2164=CARTESIAN_POINT('Origin',(74.,0.999999999999996,1.));
#2165=CARTESIAN_POINT('Origin',(18.75,0.999999999999996,1.));
#2166=CARTESIAN_POINT('',(18.75,0.,1.));
#2167=CARTESIAN_POINT('Origin',(74.,50.,1.));
#2168=CARTESIAN_POINT('Origin',(1.,0.999999999999996,14.));
#2169=CARTESIAN_POINT('',(0.,0.999999999999996,14.));
#2170=CARTESIAN_POINT('',(1.,0.999999999999996,15.));
#2171=CARTESIAN_POINT('Origin',(1.,0.999999999999996,14.));
#2172=CARTESIAN_POINT('',(1.,0.,14.));
#2173=CARTESIAN_POINT('Origin',(1.,0.999999999999996,14.));
#2174=CARTESIAN_POINT('Origin',(1.,0.999999999999996,14.));
#2175=CARTESIAN_POINT('Origin',(1.,0.999999999999996,0.));
#2176=CARTESIAN_POINT('',(0.,0.999999999999996,0.));
#2177=CARTESIAN_POINT('',(1.,0.,0.));
#2178=CARTESIAN_POINT('Origin',(74.,1.,14.));
#2179=CARTESIAN_POINT('',(74.,0.,14.));
#2180=CARTESIAN_POINT('',(74.,0.999999999999996,15.));
#2181=CARTESIAN_POINT('Origin',(74.,0.999999999999996,14.));
#2182=CARTESIAN_POINT('Origin',(74.,1.,14.));
#2183=CARTESIAN_POINT('Origin',(74.,0.999999999999996,14.));
#2184=CARTESIAN_POINT('Origin',(74.,1.,0.));
#2185=CARTESIAN_POINT('',(74.,0.,0.));
#2186=CARTESIAN_POINT('Origin',(1.,150.,14.));
#2187=CARTESIAN_POINT('',(0.,41.,14.));
#2188=CARTESIAN_POINT('',(0.,150.,14.));
#2189=CARTESIAN_POINT('',(1.,40.,15.));
#2190=CARTESIAN_POINT('',(1.,150.,15.));
#2191=CARTESIAN_POINT('Origin',(1.,41.,14.));
#2192=CARTESIAN_POINT('Origin',(74.,50.,14.));
#2193=CARTESIAN_POINT('',(74.,40.,15.));
#2194=CARTESIAN_POINT('',(74.,50.,15.));
#2195=CARTESIAN_POINT('Origin',(74.,41.,14.));
#2196=CARTESIAN_POINT('Origin',(1.,41.,7.5));
#2197=CARTESIAN_POINT('',(1.,40.,32.));
#2198=CARTESIAN_POINT('',(1.,40.,7.5));
#2199=CARTESIAN_POINT('',(0.,41.,33.));
#2200=CARTESIAN_POINT('Origin',(1.,41.,32.));
#2201=CARTESIAN_POINT('',(0.,41.,7.5));
#2202=CARTESIAN_POINT('Origin',(74.,41.,32.));
#2203=CARTESIAN_POINT('',(74.,40.,32.));
#2204=CARTESIAN_POINT('',(74.,41.,33.));
#2205=CARTESIAN_POINT('Origin',(74.,41.,32.));
#2206=CARTESIAN_POINT('Origin',(74.,41.,32.));
#2207=CARTESIAN_POINT('Origin',(74.,41.,32.));
#2208=CARTESIAN_POINT('Origin',(74.,41.,7.5));
#2209=CARTESIAN_POINT('',(74.,40.,7.5));
#2210=CARTESIAN_POINT('Origin',(1.,51.,16.));
#2211=CARTESIAN_POINT('',(1.,51.,15.));
#2212=CARTESIAN_POINT('',(0.999999999999996,50.,16.));
#2213=CARTESIAN_POINT('Origin',(0.999999999999996,51.,16.));
#2214=CARTESIAN_POINT('',(0.,51.,14.));
#2215=CARTESIAN_POINT('Origin',(1.,51.,14.));
#2216=CARTESIAN_POINT('',(0.,49.,16.));
#2217=CARTESIAN_POINT('Origin',(0.,51.,16.));
#2218=CARTESIAN_POINT('Origin',(1.,49.,16.));
#2219=CARTESIAN_POINT('Origin',(1.,150.,14.));
#2220=CARTESIAN_POINT('',(0.999999999999996,199.,15.));
#2221=CARTESIAN_POINT('',(0.,199.,14.));
#2222=CARTESIAN_POINT('Origin',(1.,199.,14.));
#2223=CARTESIAN_POINT('',(0.,150.,14.));
#2224=CARTESIAN_POINT('',(1.,150.,15.));
#2225=CARTESIAN_POINT('Origin',(0.999999999999999,199.,14.));
#2226=CARTESIAN_POINT('',(1.,200.,14.));
#2227=CARTESIAN_POINT('Origin',(0.999999999999996,199.,14.));
#2228=CARTESIAN_POINT('Origin',(1.,199.,14.));
#2229=CARTESIAN_POINT('Origin',(1.,49.,7.5));
#2230=CARTESIAN_POINT('',(1.,50.,32.));
#2231=CARTESIAN_POINT('',(1.,50.,7.5));
#2232=CARTESIAN_POINT('',(0.,49.,33.));
#2233=CARTESIAN_POINT('',(0.,49.,7.5));
#2234=CARTESIAN_POINT('Origin',(1.,49.,32.));
#2235=CARTESIAN_POINT('Origin',(74.,49.,32.));
#2236=CARTESIAN_POINT('',(74.,49.,33.));
#2237=CARTESIAN_POINT('Origin',(74.,49.,32.));
#2238=CARTESIAN_POINT('',(74.,50.,32.));
#2239=CARTESIAN_POINT('Origin',(74.,49.,32.));
#2240=CARTESIAN_POINT('Origin',(74.,49.,32.));
#2241=CARTESIAN_POINT('Origin',(74.,51.,16.));
#2242=CARTESIAN_POINT('',(74.,51.,15.));
#2243=CARTESIAN_POINT('Origin',(74.,51.,14.));
#2244=CARTESIAN_POINT('',(74.,50.,16.));
#2245=CARTESIAN_POINT('Origin',(74.,51.,16.));
#2246=CARTESIAN_POINT('Origin',(74.,49.,16.));
#2247=CARTESIAN_POINT('Origin',(74.,50.,14.));
#2248=CARTESIAN_POINT('',(74.,199.,15.));
#2249=CARTESIAN_POINT('Origin',(74.,199.,14.));
#2250=CARTESIAN_POINT('',(74.,50.,15.));
#2251=CARTESIAN_POINT('Origin',(56.25,51.,16.));
#2252=CARTESIAN_POINT('',(56.25,51.,15.));
#2253=CARTESIAN_POINT('',(56.25,50.,16.));
#2254=CARTESIAN_POINT('Origin',(74.,49.,7.5));
#2255=CARTESIAN_POINT('',(74.,50.,7.5));
#2256=CARTESIAN_POINT('Origin',(56.25,49.,32.));
#2257=CARTESIAN_POINT('',(56.25,49.,33.));
#2258=CARTESIAN_POINT('',(56.25,50.,32.));
#2259=CARTESIAN_POINT('Origin',(74.,22.5,32.));
#2260=CARTESIAN_POINT('',(74.,22.5,33.));
#2261=CARTESIAN_POINT('Origin',(18.75,41.,32.));
#2262=CARTESIAN_POINT('',(18.75,40.,32.));
#2263=CARTESIAN_POINT('',(18.75,41.,33.));
#2264=CARTESIAN_POINT('Origin',(18.75,0.999999999999996,14.));
#2265=CARTESIAN_POINT('',(18.75,0.999999999999996,15.));
#2266=CARTESIAN_POINT('',(18.75,0.,14.));
#2267=CARTESIAN_POINT('Origin',(74.,86.,-99.));
#2268=CARTESIAN_POINT('Origin',(74.,86.,-99.));
#2269=CARTESIAN_POINT('Origin',(1.,86.,-99.));
#2270=CARTESIAN_POINT('',(1.,86.,-100.));
#2271=CARTESIAN_POINT('Origin',(1.,86.,-99.));
#2272=CARTESIAN_POINT('Origin',(1.,86.,-99.));
#2273=CARTESIAN_POINT('Origin',(56.25,199.,1.));
#2274=CARTESIAN_POINT('',(0.999999999999996,199.,0.));
#2275=CARTESIAN_POINT('',(56.25,199.,0.));
#2276=CARTESIAN_POINT('',(1.,200.,1.));
#2277=CARTESIAN_POINT('Origin',(0.999999999999996,199.,1.));
#2278=CARTESIAN_POINT('',(74.,200.,1.));
#2279=CARTESIAN_POINT('',(56.25,200.,1.));
#2280=CARTESIAN_POINT('Origin',(74.,199.,1.));
#2281=CARTESIAN_POINT('Origin',(74.,199.,0.));
#2282=CARTESIAN_POINT('',(74.,200.,14.));
#2283=CARTESIAN_POINT('',(74.,200.,0.));
#2284=CARTESIAN_POINT('Origin',(74.,199.,14.));
#2285=CARTESIAN_POINT('Origin',(74.,199.,14.));
#2286=CARTESIAN_POINT('Origin',(74.,199.,14.));
#2287=CARTESIAN_POINT('Origin',(1.,99.,-50.));
#2288=CARTESIAN_POINT('',(1.,100.,0.));
#2289=CARTESIAN_POINT('',(1.,100.,-50.));
#2290=CARTESIAN_POINT('',(0.,99.,-99.));
#2291=CARTESIAN_POINT('Origin',(1.,99.,-99.));
#2292=CARTESIAN_POINT('',(0.,99.,1.));
#2293=CARTESIAN_POINT('',(0.,99.,-50.));
#2294=CARTESIAN_POINT('Origin',(1.,99.,0.999999999999996));
#2295=CARTESIAN_POINT('Origin',(1.,150.,1.));
#2296=CARTESIAN_POINT('',(0.,199.,1.));
#2297=CARTESIAN_POINT('',(0.,150.,1.));
#2298=CARTESIAN_POINT('Origin',(1.,199.,1.));
#2299=CARTESIAN_POINT('',(1.,150.,0.));
#2300=CARTESIAN_POINT('Origin',(1.,99.,-99.));
#2301=CARTESIAN_POINT('Origin',(1.,99.,-99.));
#2302=CARTESIAN_POINT('Origin',(1.,199.,1.));
#2303=CARTESIAN_POINT('Origin',(1.,199.,1.));
#2304=CARTESIAN_POINT('Origin',(37.5,100.,15.));
#2305=CARTESIAN_POINT('',(18.75,40.,15.));
#2306=CARTESIAN_POINT('Origin',(37.5,45.,33.));
#2307=CARTESIAN_POINT('',(0.,40.,33.));
#2308=CARTESIAN_POINT('Origin',(37.5,100.,15.));
#2309=CARTESIAN_POINT('',(56.25,199.,15.));
#2310=CARTESIAN_POINT('Origin',(56.25,199.,14.));
#2311=CARTESIAN_POINT('',(56.25,200.,14.));
#2312=CARTESIAN_POINT('Origin',(75.,200.,0.));
#2313=CARTESIAN_POINT('',(1.,200.,0.));
#2314=CARTESIAN_POINT('Origin',(1.,199.,0.));
#2315=CARTESIAN_POINT('',(0.,199.,0.));
#2316=CARTESIAN_POINT('Origin',(0.,200.,0.));
#2317=CARTESIAN_POINT('',(0.,142.5,-99.));
#2318=CARTESIAN_POINT('Origin',(1.,142.5,-99.));
#2319=CARTESIAN_POINT('',(1.,142.5,-100.));
#2320=CARTESIAN_POINT('Origin',(0.,0.,0.));
#2321=CARTESIAN_POINT('Origin',(75.,50.,15.));
#2322=CARTESIAN_POINT('Origin',(0.,86.,-99.));
#2323=CARTESIAN_POINT('',(0.,86.,-100.));
#2324=CARTESIAN_POINT('Origin',(0.,100.,-100.));
#2325=CARTESIAN_POINT('',(18.75,100.,0.));
#2326=CARTESIAN_POINT('Origin',(0.,85.,-100.));
#2327=CARTESIAN_POINT('Origin',(37.5,100.,0.));
#2328=CARTESIAN_POINT('Origin',(0.,40.,15.));
#2329=UNCERTAINTY_MEASURE_WITH_UNIT(LENGTH_MEASURE(0.01),#2333,
'DISTANCE_ACCURACY_VALUE',
'Maximum model space distance between geometric entities at asserted c
onnectivities');
#2330=UNCERTAINTY_MEASURE_WITH_UNIT(LENGTH_MEASURE(0.01),#2333,
'DISTANCE_ACCURACY_VALUE',
'Maximum model space distance between geometric entities at asserted c
onnectivities');
#2331=(
GEOMETRIC_REPRESENTATION_CONTEXT(3)
GLOBAL_UNCERTAINTY_ASSIGNED_CONTEXT((#2329))
GLOBAL_UNIT_ASSIGNED_CONTEXT((#2333,#2335,#2336))
REPRESENTATION_CONTEXT('','3D')
);
#2332=(
GEOMETRIC_REPRESENTATION_CONTEXT(3)
GLOBAL_UNCERTAINTY_ASSIGNED_CONTEXT((#2330))
GLOBAL_UNIT_ASSIGNED_CONTEXT((#2333,#2335,#2336))
REPRESENTATION_CONTEXT('','3D')
);
#2333=(
LENGTH_UNIT()
NAMED_UNIT(*)
SI_UNIT(.MILLI.,.METRE.)
);
#2334=(
LENGTH_UNIT()
NAMED_UNIT(*)
SI_UNIT($,.METRE.)
);
#2335=(
NAMED_UNIT(*)
PLANE_ANGLE_UNIT()
SI_UNIT($,.RADIAN.)
);
#2336=(
NAMED_UNIT(*)
SI_UNIT($,.STERADIAN.)
SOLID_ANGLE_UNIT()
);
#2337=SHAPE_DEFINITION_REPRESENTATION(#2338,#2339);
#2338=PRODUCT_DEFINITION_SHAPE('',$,#2341);
#2339=SHAPE_REPRESENTATION('',(#1366),#2331);
#2340=PRODUCT_DEFINITION_CONTEXT('part definition',#2345,'design');
#2341=PRODUCT_DEFINITION('2026-06-25-15-11-20-012','Phone Case',#2342,#2340);
#2342=PRODUCT_DEFINITION_FORMATION('',$,#2347);
#2343=PRODUCT_RELATED_PRODUCT_CATEGORY('Phone Case','Phone Case',(#2347));
#2344=APPLICATION_PROTOCOL_DEFINITION('international standard',
'automotive_design',2009,#2345);
#2345=APPLICATION_CONTEXT(
'Core Data for Automotive Mechanical Design Process');
#2346=PRODUCT_CONTEXT('part definition',#2345,'mechanical');
#2347=PRODUCT('2026-06-25-15-11-20-012','Phone Case',$,(#2346));
#2348=PRESENTATION_STYLE_ASSIGNMENT((#2349));
#2349=SURFACE_STYLE_USAGE(.BOTH.,#2350);
#2350=SURFACE_SIDE_STYLE('',(#2351));
#2351=SURFACE_STYLE_FILL_AREA(#2352);
#2352=FILL_AREA_STYLE('Steel - Satin',(#2353));
#2353=FILL_AREA_STYLE_COLOUR('Steel - Satin',#2354);
#2354=COLOUR_RGB('Steel - Satin',0.627450980392157,0.627450980392157,0.627450980392157);
ENDSEC;
END-ISO-10303-21;
